<svg version="1" xmlns="http://www.w3.org/2000/svg" width="852" height="852" viewBox="0 0 639.000000 639.000000"><path d="M264.4 3.9c-4.9 2-10.3 4.1-11.9 4.8-2.9 1.1-2.8 1.1 1.5.7 10.5-.9 13.5-1.6 17.7-4.1 2.4-1.4 6.5-3.1 9.1-3.9l4.7-1.3-6 .1c-4.4.1-8.5 1.1-15.1 3.7zM317.6 5.8c-1.8.2-3 1.1-3.3 2.3-.8 2.8-8.8 2.7-10.5-.1-1.4-2.1-3.8-2.6-5.3-1.1-.6.5-3.9 1.1-7.4 1.2-3.5.1-8.5.8-11 1.5-2.6.6-6.9 1.5-9.6 1.8-10.9 1.5-20.2 3.4-22 4.7-.5.3-2.8 1.2-5 1.9-4.8 1.5-5.7 2.7-4.3 5.4 1.6 3 2.5 3.4 7.1 2.9 6.3-.8 7.5-1.7 3.8-3.3-4.4-1.8-3.9-2.7 1.7-2.8 13.8-.5 23.3-1.5 28.6-3.1 1.7-.5 3.8-.9 4.6-.9 1.5.1 13.3-1.2 16-1.7.8-.1 5.3-.6 10-1 10.7-.8 13.8-1.3 16.1-2.5 2.8-1.5 5-4.1 4.4-5.1-.6-.8-7-.9-13.9-.1zm-42.1 8.3c-.9 1.3-5.1 2.9-9 3.4-1.6.2-4.5.7-6.3 1.1-3.1.6-3.4.5-3-1.7.3-2.3.8-2.4 8.8-3 4.7-.3 8.9-.6 9.3-.7.5-.1.5.3.2.9zM368 9.1c0 .5.5.7 1 .4.6-.3 1-.8 1-1.1 0-.2-.4-.4-1-.4-.5 0-1 .5-1 1.1zM337 15.1c-2.7 2.8-3.2 2.9-5 1.6-1.5-1.1-3.1-1.2-5.8-.7-2 .5-6.4 1.1-9.7 1.5-6.3.6-8.2 1.6-7 3.5.5.8 1.9 1 3.9.6 1.7-.4 7.4-.9 12.6-1.2 5.2-.3 11.1-1 13-1.6 1.9-.6 7.7-1.2 12.7-1.3 8.3-.1 11.5-.7 10.2-1.9-.2-.2-3.9-.7-8.2-1.1-4.2-.3-9.1-1-10.7-1.5-2.6-.7-3.4-.4-6 2.1zM374.3 19.4c-4.7 1.5-6.3 2.5-6.3 3.8 0 3 2.4 3.1 7.4.4 2.7-1.4 5.7-2.3 7.1-2 2.2.4 2.4.2 1.6-1.8-1.1-2.9-2.2-3-9.8-.4zM390.8 17.8c-1.8.3-2.6 3.2-.9 3.2 1 0 3.6-2.9 3-3.3-.2-.2-1.2-.2-2.1.1z"/><path d="M281 19.8c-4.6 1.4-7.7 7.3-4.5 8.6.9.3 1.5 0 1.5-.9 0-2 2.6-3.1 8.6-4 3.6-.4 5.8-.3 7.3.7 1.7 1 2.5 1 4.1 0 1.1-.6 3.9-1.2 6.2-1.2 3-.1 3.8-.3 2.8-1-2.7-1.5-22.7-3.2-26-2.2zM257.1 23.4c-1 1.2-.4 1.5 3.1 2.1 2.4.4 6 1.5 8 2.5 4 2.1 5.9 1.3 3-1.2-4.3-3.8-12.2-5.7-14.1-3.4zM356.5 24c-1.8.8-1.7.9.8 1.1 1.5.1 3.4.2 4.2.3.8 0 1.5-.4 1.5-.9.1-1.3-4-1.6-6.5-.5zM410.2 25c1.6 2.4.8 3.2-3.9 3.7-3.9.4-5 .9-4 1.9.7.8 10.2.7 12.6-.1 1.6-.5 1.5-.9-1.4-4-3.4-3.8-5.2-4.6-3.3-1.5zM340.5 25c-3.1.5-3.2.9-1.6 3.7 1.2 2.2 5.7.8 7.9-2.4 1.4-2.2 1.3-2.3-.9-2.1-1.3.1-3.7.5-5.4.8zM383.4 25.4c-1.7 1.3-1.7 1.4.5 2.1 7 2.2-4.6 4.2-14.2 2.4-6.8-1.2-14.7-1.7-15.2-.9-.3.4 1.2 1.1 3.3 1.4 14.6 2.5 22.1 3.9 24.5 4.7 3 .9 7.6-.6 7.8-2.5.2-3.1.9-5 2.1-5.7.7-.4.9-1.1.5-1.5-1.3-1.4-7.4-1.3-9.3 0zM226.5 29.4c-1.6 1.4-3.8 2.5-4.7 2.6-2.2 0-2.4 1.6-.3 2.3 2.4 1 5.9-.1 7.4-2.4 1.4-2 1.5-2 3.3 1.7 2.3 4.8 1.1 6.5-3.7 5.4-4.6-1-16.1-1-19.8.1-1.6.5-5.5 1.1-8.5 1.4-6.8.6-9.5 1.9-6.3 3 3.2 1 1.6 2.3-3.7 3-7.9 1-9.2 1.5-9.2 3.1 0 1.3 1 1.5 6.8.9 11.5-1.1 15.6-1.6 17.5-2.1 1-.3 2.3-.1 3 .4 2.1 1.6 6.5 2.3 7.3 1.1.9-1.6-2.4-3.9-5.5-3.9-3.8 0-5.9-1.6-4.3-3.2 1.9-1.9 10.2-1.8 15.6.2l4.8 1.9 6.7-3.5c3.6-1.9 7.2-4.2 7.8-5.1 1.2-1.5 1.5-1.5 3.6.5 1.3 1.2 3.2 2.2 4.3 2.2 1.1 0 4.2.7 6.7 1.6 2.7.9 5.9 1.3 7.4 1l2.6-.7-2.4-2.5c-4.4-4.7-7.6-6.4-15.4-7.9-4.3-.8-8.2-1.8-8.9-2.3-.6-.5-2.9-.9-5.1-1.1-3-.1-4.8.5-7 2.3zm11.5 5c0 .3-.4.8-1 1.1-.5.3-1 .1-1-.4 0-.6.5-1.1 1-1.1.6 0 1 .2 1 .4zM332 32c-1.3.8-1.2 1 .3 1 .9 0 1.7-.5 1.7-1 0-1.2-.1-1.2-2 0zM288.6 32.9c-.3.5 0 1.4.8 2 1.1.9 1.8.8 3-.4.9-.9 1.6-1.8 1.6-2.1 0-.8-4.9-.4-5.4.5zM302.5 33c.3.5 1.5 1 2.6 1 1 0 1.9-.5 1.9-1 0-.6-1.2-1-2.6-1-1.4 0-2.3.4-1.9 1zM430.7 33.7c-.3.5-.2 1.5.2 2.2.5.7 1.1.9 1.4.4.3-.5.2-1.5-.2-2.2-.5-.7-1.1-.9-1.4-.4zM360.5 35c-.3.5.1 1 .9 1s1.8-.5 2.1-1c.3-.6-.1-1-.9-1s-1.8.4-2.1 1zM405 37.5c.9 1.1.9 1.5.1 1.6-2.6.3-3 .4-3.7 1.1-.4.5.6.8 2.2.9 12.5.4 18.8 1.2 22.8 2.9 4.8 2 7.3 1.2 3.1-1-1.4-.7-2.5-2.2-2.5-3.2s-.8-1.8-1.7-1.9c-3.3-.1-11.7-.8-16.6-1.3-4.2-.5-4.7-.3-3.7.9zM270.5 39c.3.5.8 1 1.1 1 .2 0 .4-.5.4-1 0-.6-.5-1-1.1-1-.5 0-.7.4-.4 1zM346.7 41.6c-.1.1-4.5.4-9.7.8-14.2 1-25.2 2.7-47 7.1-4.1.8-14.7 1.5-28.5 1.9-21.3.6-53.8 8.5-77 18.5-26.4 11.5-55 34-75.1 59.2-3.2 4.1-6.1 7.6-6.4 7.9-1.9 1.7-13.3 18.6-16.3 24.1-4.5 8.4-26.7 52.5-26.7 53.2 0 .3-1.6 3.9-3.5 8s-3.5 7.8-3.5 8.2c0 .4-.7 2.1-1.5 3.8-2 4.4-7.1 23.4-8.9 33.7-7.1 38.2-8.1 46.9-8.1 69 0 11.8.3 23.3.7 25.5 1.2 7 2.7 12.8 4.8 19 1.2 3.3 3.9 12.7 6.1 20.8 2.2 8.1 5.3 18.1 6.9 22.3 3.1 7.7 3.7 11.4 2 11.4-.5 0-1.7-1.2-2.6-2.8-1-1.5-2.8-4.3-4.1-6.4-1.4-2-3.9-8-5.8-13.3-1.9-5.6-4.4-10.8-5.9-12.4-2.8-2.9-3.4-5.7-1.4-6.3 2-.7 1.1-11-1.6-19.2-1.5-4.3-2.4-8.2-2-8.7 1-1.6-.5-5.9-2-5.9-1.4 0-1.9-1.5-3.1-8.9-1.1-6.3-1.3-20.4-.5-22.6.5-1.2 1.8-8.9 3-17.1 2.1-14.4 3.9-25.4 5.9-35.8 1-5.4.7-7.2-1.5-8-.8-.3-1.1-1.2-.7-2.3.6-1.6.5-1.6-.9-.5-2.1 1.7-7.8 15.3-7.8 18.4l.1 2.3 1.8-2.2c1.9-2.3 3.1-2.1 3.1.4 0 .8-1.8 6.2-4.1 12.1-5.5 14.3-6.9 20.2-8.4 33.7-.7 6.6-2.4 9.8-2.6 4.9-.1-1.6-.2-6.2-.2-10.2 0-3.9-.4-7.2-.8-7.2-.5 0-1.5 3.2-2.3 8-.2.9-2.8 7.4-3.9 9.7-1.1 2.5-.5 4.3 3.7 10 2.6 3.6 3.5 3.2 5.6-2.1.6-1.6 1.4-2.6 1.8-2.2.6.7 2.1 20.2 2.2 27.9 0 1.6.4 4.5 1 6.6 1.4 5.2 2 16.4 1 18-.9 1.5-1.3.4-2.5-5.9-.4-1.9-1.1-5-1.7-6.9-1-3.2-1.2-3.3-2.4-1.7-1.1 1.5-1 2.6.7 6.9 2.4 6.1 3.5 16 2.2 20.7-.8 2.9-.6 4.3 1.3 8.1 1.2 2.5 2.9 5.1 3.8 5.8 1.2 1 1.6.7 2.5-2.6.6-2.1 1.1-6.4 1.1-9.6 0-3.6.4-5.6 1-5.2.6.4 1 5.3.9 11.9-.1 6.2.3 12.1.9 13.2.7 1.4.7 2.4-.4 3.9-.8 1-1.4 3.8-1.4 6.1 0 3.4.5 4.7 2.6 6.3 1.5 1.2 3.2 2.1 3.8 2.1.6 0 2.2 1.2 3.5 2.6 1.4 1.4 3.3 2.4 4.5 2.2 1.7-.2 2.2.3 2.4 2.9.2 2.4.8 3.3 2.1 3.3 1 0 3 .9 4.4 2 1.4 1.1 2.9 2 3.5 2 1.8 0 4 3.6 7.1 11.6 1.8 4.4 4.3 9.3 5.7 10.9 3 3.6 2.6 4-1.9 1.9-4.6-2.2-11-.9-11.5 2.3-.2 1.3-1.3 2.4-2.8 2.7-1.3.4-2.4 1.1-2.4 1.6 0 1.3.4 1.3 3.4-.1 3.6-1.7 7.1-.4 8.5 3 .7 1.6 2.5 3.9 3.9 5.1 1.5 1.3 5 4.5 7.8 7.1 4 3.7 5.8 4.7 7.7 4.4 1.6-.3 3.6.5 6.3 2.5 2.1 1.7 6.1 4.6 8.7 6.6 2.6 2 5.6 5.3 6.7 7.3 1 2.1 2.6 4.3 3.4 5 1.4 1.2 1.6 1 1.6-.7 0-1.2-.4-2.4-1-2.7-.5-.3-1-1.1-1-1.6 0-1.8 3.9 1.1 6.4 4.8 3 4.4 2.4 6.1-1.2 3.7-2.6-1.7-2.7-1.7-1.2.2.8 1 3.1 3.8 5.2 6.1 4.6 5.2 14.3 19.7 19.4 29.3 2.1 3.8 4 6.8 4.2 6.5 1.3-1.2-7.4-19-15-30.9-6.1-9.5-4.6-13.6 1.7-4.8 3.4 4.7 5.4 5.6 8.3 3.8 1.1-.6 1.1-1.1-.1-2.4-.8-1-1.7-2.5-2-3.5-.4-1-2-2.3-3.7-2.8-1.6-.6-3-1.5-3-1.9 0-.4-2.8-2.6-6.2-4.8-3.5-2.3-8.5-5.6-11.2-7.5-5.6-4-16.6-14.6-16.6-16 0-.5.7-.3 1.6.4.9.7 2.3 1.4 3.1 1.5.8.2 2.2.9 3.1 1.7 1 .8 2.8 2 4.1 2.7 2.2 1.1 2.3 1.1 1-.8-.8-1-4.2-5.1-7.7-8.9-8.7-9.8-10-11.6-13.3-18.1-1.6-3.1-4.2-7.7-5.8-10.2-3.6-5.7-15.9-27.3-18.3-32.3-1.1-2.2-1.6-4.6-1.3-5.5.6-1.5.8-1.5 1.3-.2.3.8 1.8 3.4 3.3 5.6 1.6 2.3 2.6 4.4 2.3 4.7-.6.6 9 16.4 15.3 25.2 2.4 3.3 6.2 8.7 8.4 12 18.6 26.9 54 57.4 87.2 75l10.7 5.7v-3.6c0-2.1-.5-3.6-1.2-3.6-.6 0-2.5-1.1-4.2-2.4-1.7-1.2-6.5-4-10.6-6.1-16.7-8.5-33.1-21.5-54.4-43-12.1-12.2-20.4-22.2-23-27.5-1.6-3.4-1.6-3.4.1-1 1 1.3 3.6 4.5 5.8 7.1 2.2 2.5 6.5 7.4 9.5 11 3 3.5 7.5 8.2 9.9 10.4 2.4 2.2 8 7.5 12.5 11.8 8 7.8 15.2 13 27.1 19.6 8.3 4.7 5.1 1.2-8-8.5-12.4-9.3-39.7-36.6-49.1-49.4-8.8-11.8-10.9-15-9.8-15 .5 0 2.9 3 5.4 6.7 10.3 15.4 35 41.1 35 36.5 0-.5-3.2-3.8-7-7.3-9-8.1-26.7-31.2-35.9-46.9-4.3-7.3-13.2-29.6-14.6-36.5-.6-2.9-.6-2.9.9-1.1.9 1.1 1.6 2.7 1.6 3.6 0 .8.7 2.5 1.5 3.7.8 1.1 3.4 7.2 5.9 13.5 2.4 6.3 5.4 13.5 6.6 15.9 4.2 8.2 24.5 35.7 25.7 34.6.6-.7-1.5-4.6-3.9-7.1-1.1-1.2-2.4-3-3-4.1-.6-1.1 5.2 4.3 12.8 12 21.6 21.7 41.1 37.8 56.7 46.9 3.7 2.2 6.7 4.3 6.7 4.8 0 1.1-.3 1-3.6-.7-1.5-.8-3-1.2-3.3-1-.2.3-.2.6 0 .8.2.2 2 1.5 4 2.9l3.6 2.7.1-4.4c.1-4.2-.1-4.4-5.1-7.6-7.5-4.6-19.7-12.8-23.2-15.7-7.7-6.2-33.2-30.5-37-35.2-1.5-1.8 14.6 12.1 18.5 16 .3.3 3.9 3.4 8 7s7.7 6.8 8 7.1c.6.7 15.7 11.8 18.6 13.6 1 .7 4.3 2.8 7.1 4.7 4.5 3 5.3 3.2 5.3 1.6 0-1.2-3.7-4.2-11-9-6.1-3.9-14.6-10.2-18.8-13.8-9.7-8.4-33.2-31.6-33.2-32.8 0-.5 3.5 2.6 7.8 6.7 16.6 16.3 39.1 34.6 48.6 39.7 3.3 1.8 6.2 3 6.4 2.7.6-.6 1.6.2-9.8-8.4-5.2-3.9-12.6-9.7-16.5-12.7-8-6.3-33.1-30.9-34.7-33.9-1.1-2.1 1.2-.1 14.2 12.1 17.5 16.6 27.5 24.9 37.8 31.3 8.9 5.6 8.8 5.6 8.3-1.9-.2-2.8.1-2.5-12.5-11.5-13.3-9.6-41.3-37.7-49.4-49.6-3.9-5.9-10.5-18.9-9.9-19.6.3-.2 2.3 2.6 4.5 6.4 6.1 10.3 9.8 15.2 23.3 30.5 8.5 9.6 15.4 16.4 21.9 21.3 5.2 4 11.9 9.3 14.9 11.9 3 2.5 5.8 4.6 6.3 4.6.4 0 .8-2.8.8-6.3 0-5.8-.2-6.4-2.8-7.9-6.3-3.8-22.2-17.6-22.2-19.4 0-.3 2.6 1.5 5.7 3.9 3.2 2.4 8.8 6.5 12.6 9.1l6.7 4.8v-3.1c0-1.7-.5-3.1-1.1-3.1-1.2 0-9.1-6-11.9-9-3.8-4.1-5.2-6-4.4-6 1.1 0 15.5 10.8 16.6 12.4.5.7.8.6.8-.2s-2.5-4.1-5.5-7.5c-5.6-6.4-6.2-7.7-2.5-5.7 2.5 1.3 3.9.5 2.2-1.2-1.4-1.4-1.6-2.8-.4-2.8.4 0 2 1.2 3.6 2.6l2.8 2.7-.8-4.4c-.4-2.4-.6-7-.5-10.1.1-5.5-.1-6-4.1-10.5-2.4-2.7-5-5.5-5.9-6.3-2.3-2.2-12.5-16.1-13.9-19l-1.2-2.5 2.3 2.5c1.3 1.4 4.5 5 7 8 2.6 3 7.2 8.2 10.3 11.4 4.5 4.8 5.6 5.5 5.6 3.8 0-1.1-.5-2.4-1.1-2.7-1.8-1.1-19.9-22.7-19.9-23.7 0-1.8 1.7-.3 8 7 9.1 10.7 13 14.4 13 12.6 0-.9-4.2-6.6-9.4-12.8-5.1-6.1-10.6-13.1-12.1-15.5-4.4-7.2-13.9-26.8-18.5-38.5-4.5-11.4-5.8-12.5-4.2-3.4l1 5.3-1.9-2.4c-1.8-2.2-1.9-2.2-1.9-.3 0 1 1.4 6.6 3 12.2 1.7 5.6 2.9 10.4 2.7 10.7-.2.2-2.7-5.4-5.5-12.4s-5.1-11.9-5.2-10.7c0 1.2.5 3.5 1.1 5.3 1.5 4.4.4 5.1-1.4.9-2.2-5.1-5.5-14.8-6.6-19.3-2.2-9-3.2-41.8-1.1-38.5.5.8 1.1 1.2 1.4 1 1.2-1.3 2.1-17.5 1.6-31-.1-4.2-.2-4.3-1.3-2l-1.1 2.5-.4-3.3c-.2-1.8.1-3.9.7-4.6.6-.7 1.6-3.7 2.1-6.7.6-3 1.2-6.4 1.4-7.5 1.2-6 6.9-25 8.2-27.3l1.5-2.6-.5 2.5c-.3 1.4-1.6 6.5-2.9 11.5-3.1 11.2-3.9 18.8-4.2 38.7-.2 16.5.2 19 3.2 17.2 2.2-1.4 3.2-5.1 3.9-15.4.3-4.7.9-11 1.4-14 .5-3 1.2-7.3 1.6-9.4.7-4.5 2.1-8.6 2.9-8.6.4 0 .4.3.2.7-.3.5-.8 5.2-1.1 10.6-.4 5.4-.9 10.3-1.1 11-.9 2.7-1.3 13.3-.6 15.2.8 1.9.8 1.9 1.8 0 1-1.8 2.5-10.2 3.8-21 1.4-11.9 3.4-18.7 8.9-30.9 7.9-17.2 16-30 25.3-39.7 3.9-4 4.4-5.1 4.1-8.3l-.3-3.7-7.1 6.8c-3.9 3.7-9.2 9.5-11.8 12.8-6.2 7.7-6.5 7.9-3.5 2.8 3.1-5.4 12.1-15.7 18-20.8 3.5-2.9 4.8-4.7 4.8-6.8.1-2.7.1-2.7-2.4-1.1-1.4.9-2.5 1.2-2.5.6s.6-1.3 1.3-1.5c.9-.4.9-.6-.1-.6-1.4-.1-10.3 6.4-15.8 11.5-1.6 1.6-7.7 10.1-13.4 18.9-5.7 8.8-11 16.7-11.7 17.5-3 3.3-1-1.2 4.2-9.5 3-4.8 5.5-9.7 5.5-10.9 0-3.4 4.6-11.9 8.2-15.2 1.8-1.6 2.4-1.9 1.4-.7-1.2 1.5-1.5 2.3-.7 2.3.7 0 6.7-5.4 13.3-12.1l12.1-12-.7-11.2c-.4-6.2-.7-12.3-.7-13.6.1-2.2-.1-2.3-1.6-.9-4.6 3.8-15.6 10.9-13.8 8.9 2.7-3.1 13.1-11.1 14.4-11.1.6 0 1.1-1.4 1.1-3v-3l-4.2 2.6c-2.4 1.5-7.9 5.1-12.3 8.1l-8 5.5 5.5-5.2c3-2.9 8.6-7 12.4-9.3 3.8-2.3 6.3-4.3 5.6-4.5-.6-.2-2.5.5-4.1 1.7-1.5 1.1-3.1 2.1-3.5 2.1-.3 0-2.8 1.6-5.4 3.5-2.6 1.9-5.1 3.5-5.5 3.5-1.9 0 2.6-3.6 10.2-8.2 8.7-5.4 11.8-8.9 3.6-4.1-8.9 5-12.8 7.5-15.3 9.7-2.1 1.8-2.3 1.8-1 .1 2.9-3.7 7.6-7.4 14.2-11.2 5.2-2.9 6.8-4.3 6.8-6.1V127l-4.2 2.1c-13.2 6.7-25.8 18.2-40.2 36.7-2.7 3.4-5.1 6-5.4 5.7-.9-.9 11-15.5 22.3-27.3 9.8-10.2 12.3-12.2 19.4-15.7 6.6-3.2 8.1-4.3 8.1-6.2 0-1.3-.2-2.3-.4-2.3-.3 0-4.8 2.5-10.1 5.6-5.3 3-9.8 5.4-10 5.2-.5-.5 14.2-10.3 17.8-11.9 2.2-1 2.7-1.8 2.3-3.3-.3-1.2-.6-2.7-.6-3.4 0-.8-.5-1-1.2-.6-.9.5-.8.2.1-.9 1.1-1.4 1.2-4.2.7-13.7-.7-11.6-.7-12 1.3-12 1.1 0 30.5-2.3 65.3-5.1 85.9-7 116.4-7.2 143.6-.8 9.5 2.2 10.3 2.3 8.2.9-.9-.6-1-1-.3-1s1.6.6 2 1.3c.4.8 4.6 2.7 9.3 4.3 4.7 1.6 12.3 5.2 16.9 8 7.9 4.7 22.9 16.9 23 18.7.1.5 1.4 2.7 3 5 1.5 2.3 4.3 7.1 6.1 10.7 2.3 4.5 6 9.3 12.2 15.5 8.3 8.3 14 15.4 9.4 11.6-1-.8-4.9-4.8-8.8-8.8-3.9-4-7.3-7.1-7.6-6.9-.5.6 1.8 7.9 2.7 8.6 2.1 1.7 14.1 16.2 14.1 17.1 0 .6-1.8-1-4.1-3.5-2.2-2.5-5.4-6-7.1-7.8l-2.9-3.3.6 4.4c.5 2.7 1.8 5.6 3.5 7.5 5.7 6.2 8 9.1 8 10 0 1.1-2.4-.9-6.7-5.4l-3.2-3.5-.1 2.8c0 1.7 1.1 4 2.8 5.8 3.3 3.6 9.7 14.9 8.4 14.9-.5 0-2.1-1.7-3.5-3.8-1.4-2-3.7-5-5.1-6.6l-2.6-2.9v2.7c0 1.5 1.3 4.6 2.9 6.9 3.1 4.7 6.4 10.7 5.7 10.7-.2 0-2.3-2.3-4.5-5.1-3.9-4.9-4.1-5-4.1-2.5 0 1.7 1.9 5.4 4.7 9.3 2.6 3.7 5.4 7.9 6.3 9.4 5.2 9.2 6 10.9 5.3 10.9-.8 0-5.3-6.5-5.3-7.5 0-.3-.5-1.1-1-1.8-.6-.7-2.9-4.1-5.3-7.7l-4.2-6.5-.3 5.9c-.3 6.6.6 10.6 1.7 6.9l.6-2.1 1.6 2.2c1.4 1.9 1.5 2.5.3 4-1.1 1.6-1.6 1.7-2.9.6-3.3-2.8-1.4 3.2 3.7 11.3 5.8 9.3 15.1 28.3 16.7 34.2 2 7.4-.6 5.6-2.8-2-1.3-4.2-3.3-8.8-4.6-10.3l-2.3-2.7.8 4.2c.5 3.1.3 4.8-.7 6.3-1.8 2.6-.2 5 3.3 5 1.3 0 2.4.2 2.4.4s.7 3.1 1.5 6.3c1.5 6.1 2 8.7 3.1 16.2 1 6.9 1.3 8.3 1.9 8.9.6.6.7-.9.5-6.6-.1-2.4.3-4.2.9-4.2.6 0 1.1 1.2 1.2 2.7 0 1.6.2 3.7.4 4.8.3 1.1.7 4.2 1 7 .3 2.7.9 6.6 1.3 8.5.4 1.9.5 5.5.2 8l-.5 4.5-1.3-3.5c-1.2-3.1-1.4-3.3-2.3-1.7-.6 1-.8 2.9-.5 4.2.3 1.3.8 5.8 1.2 10.1.6 9.2 1.1 12.4 1.9 13.2.3.3.6-.3.7-1.4 0-1 .2-2.4.3-2.9.2-.6.4-1.9.5-3 .2-1.4.4-1.1.9 1 .9 4 .3 18.8-.8 21.7l-1 2.3-.2-2.5c-.1-1.4-.1-3.1 0-3.8.3-2.3-1.7-1.2-2.3 1.3-.8 3-2.2 3.2-3.1.5-.7-2.3-2.1-2.6-2.7-.8-.3.7-.6 4.6-.7 8.7-.2 6.1 0 7.3 1.2 6.8.8-.3 2 0 2.6.6.8.8 1.5.5 2.8-1.2l1.6-2.4 1.1 2.8 1.2 2.8 1.8-4.1c1.7-3.8 2-4 3.2-2.4 1.5 2.1 2.1 1.6 2.6-2.3.2-2.2-.2-3-1.7-3.5-1.5-.4-2-1.3-1.9-3.5.1-1.7.2-4.6.3-6.6.1-2.4 1-4.6 3.1-6.9 1.7-1.8 3-3.7 3-4.2 0-1.3 1.7-.9 3.5.8 1.2 1.3 1.6 3.3 1.4 8.2-.3 8.1-.9 11.3-1.9 10.7-1-.6-1.7 1.4-2.5 7.2-.4 2.9-.2 4.3.5 4.3.6 0 .9-.3.7-.8-.3-.4 0-1.6.4-2.7.6-1.3.8.9.5 6-.6 9-.9 11.1-3.7 21-3.4 12.5-1.7 11.1 2.5-2 5.6-17.5 6.5-26.5 6.2-65.8-.1-19.7.1-35.4.6-34.9 1 1 1.5 5.9 2.4 27.2 1.2 28.6.8 38.5-2.7 60.5-1.6 10.2-1.9 11.7-4.6 20.5-3.8 12.2-8.5 20.7-25.7 45.4-18.6 27-29.6 38.8-46.1 49.6-11.2 7.4-28.3 16.5-29.2 15.6-.7-.6 6.7-5.9 14.3-10.1 5.7-3.2 8.6-5.5 6.9-5.5-.9 0-15.7 8.1-17.5 9.5-2.5 2.1-5.6 2.6-8.6 1.4l-2.9-1.1 2.2-1.8 2.2-1.8-2.1-.5c-1.7-.5-1.9-.9-1-2 .7-.8.9-1.7.5-2-.3-.4 0-1.3.6-2.1 1.8-2.1-.7-3.3-2.7-1.3-1.6 1.7-2.5 12.7-1 12.7.4 0 .4.8-.1 1.7-.4 1-1.3 3.2-1.8 5-1 2.8-.9 3.1.8 2.8 1.1-.2 2.5-.7 3.2-1.1.6-.4-.3.9-2.2 2.9-6.8 7.2-1.7 5.6 17.1-5.3 19.9-11.7 30.3-19.5 43.8-33 14.3-14.4 19.5-20.4 24.5-28.6 2-3.3 5.3-8.4 7.4-11.4 8.5-12.1 22.3-41.7 24.6-52.7 1-5.1 2.7-5.2 2.1-.1-2.3 19-8.3 33.3-22.9 54.3-6.4 9.1-9.6 13.5-25.1 33.5-2.7 3.6-7 8.5-9.5 10.9-6.9 6.5-22.9 18.4-30.6 22.6-10.6 5.9-25.8 13.5-26.9 13.5-.7 0-3 1.6-5.2 3.5l-3.9 3.6 3.4-.7c4.7-.9 3.4.7-4.4 5.2-3.5 2.1-6.3 3.9-6.2 4 .5.5 16-5.2 24.3-8.9 4.5-1.9 14.8-7.9 23-13.3s17.5-11.5 20.7-13.5c3.2-2.1 9.9-7.5 14.9-12.1 9.2-8.5 11.8-10.5 11.8-9.1 0 3.1-22.1 23.1-34.6 31.4-8.1 5.4-11.6 7.2-32.4 17.2-15.6 7.5-21.6 11.4-19.3 12.3 1 .4 1 1.1.2 2.6-1 1.9-.9 2 1.6 1.4 8.7-2.2 45.2-21.6 63.3-33.8 5.6-3.8 10.2-6.6 10.2-6.2 0 .3-2.5 2.9-5.5 5.7-5.8 5.3-7.4 8.2-2.7 4.9 1.5-1 3.8-2.5 5.1-3.2 4.3-2.2 1.2.8-5.7 5.7-3.7 2.6-7.7 5.7-9 6.9-2.3 2.2-19.8 11.5-24.2 12.9l-2.5.7 2.4-2.6c3.4-3.6 1.5-3.3-7.6 1.3-4.3 2.1-8.9 4.2-10.3 4.6-3.7 1.2-13.7 7.8-12.3 8.2.6.2 3.1-.6 5.4-1.8 8.4-4.2 20.2-8.9 19-7.5-.6.7-3.9 2.4-7.3 3.7-3.3 1.2-10.1 4.7-15.1 7.7-13.1 7.9-15 8.6-17.2 6.2-1.7-1.9-2.6-1.8-8 .5-1.6.8-4.2 1.7-5.7 2-2.1.5-2.8 1.3-2.8 3.1 0 2.2.2 2.3 2.1 1.4 1.1-.7 2.3-.9 2.6-.6.3.3-.6 1-2 1.5s-2.8 1.5-3.2 2c-.3.7-4.4 1.1-9.8 1.1-5.1 0-14.8.5-21.7 1.2-6.9.6-17.4 1.1-23.5 1.2-15.1.3-16.7.4-16 1.6 1 1.6 36.2 1.1 45.9-.6 4.4-.7 8.1-1.2 8.3-1 .4.4-10.8 3.2-16.2 4.1-1.6.2-12.7.5-24.5.6-16.3.1-23.2-.3-28.5-1.5-5.5-1.2-10.5-1.4-23-1-8.8.3-18 .5-20.3.4-5.7-.1-4.7 1.2 2.7 3.9 7.8 2.8 8.7 4.3 1.5 2.4-6.8-1.7-8.3-.9-2.6 1.5 5.6 2.3 5.3 3.2-.5 2-6.9-1.4-7.8-1.4-8.1-.3-.2.5 1 1.4 2.7 1.9 1.7.6 3.3 1.6 3.6 2.4.3.9-.1 1.2-1.3.8-.9-.3-3.5-.8-5.7-1.1-3.7-.6-3.9-.5-2.1.9 1.6 1.3 1.7 1.6.4 1.6-1.6 0-6.8-1.5-10.3-3-1.1-.5-3-1.2-4.3-1.5-1.3-.4-2.1-.9-1.8-1.2.2-.3 2 0 4 .7 1.9.6 4.7 1.3 6.3 1.6 4.5.8 1.5-1.4-4.8-3.4-4.4-1.4-5.4-2.1-5.2-3.9.2-1.5-.6-2.4-2.7-3.3-1.6-.7-3.4-.9-4-.5-.6.4-5.9.7-11.8.6h-10.7l5.1 2.3c2.9 1.3 16.9 6.2 31.3 11 25.4 8.3 38.9 11.7 52.1 13.1 3.6.4 10.8 1.2 16 1.9 5.2.6 13.3 1.1 18 1 10.5-.2 31.6-1.3 35-1.9 1.4-.2 4.8-.6 7.5-.9 9.7-1 13.1-1.8 23-5.3 5.5-1.9 11.6-4 13.5-4.5 4.4-1.3 13.6-5.9 22-11.1 3.6-2.2 15.1-8.6 25.6-14.2 22.1-11.9 29.2-16.3 45.2-28.2 25.3-18.7 31.4-24.6 48.9-47.1 19.1-24.6 25.6-34 31.6-46.1 6.5-12.9 13-31.1 15.1-42.1.2-1.4 1.9-9.5 3.6-18 6-29.8 6.5-34.7 6.5-65.5-.1-32.4-1.2-51.2-3.6-63-.6-2.8-1.3-6.1-1.5-7.5-1.4-7.2-10-30.3-15.2-40.8-10.5-21.1-29.2-51.9-40.2-66-9.3-12.1-27.7-30.6-41-41.4-4.2-3.3-20.7-14.1-37.7-24.5-14.5-8.8-46.6-19.8-70.3-23.9-2.5-.4-4.7-.8-5-.9-2.3-.6-23.8-2.3-24.3-1.9zm-7.7 5.8c0 .3-.4.8-1 1.1-.5.3-1 .1-1-.4 0-.6.5-1.1 1-1.1.6 0 1 .2 1 .4zm21.4.5c1 1.5-2.1 2-5.8 1-2-.5-3.6-1.2-3.6-1.4 0-.9 8.9-.5 9.4.4zm-41.6 8.6c1.1 2.3.9 2.7-1.3 3.5-1.4.5-2.5 1.4-2.5 2 0 1.8-2.5 1.1-4.2-1.3-2.4-3.2-2.2-4 1.5-5.4 4.7-1.7 5.3-1.6 6.5 1.2zm39.7.5c1.6.7 1.2.9-1.8.7-2.1 0-4.1-.5-4.3-.9-.7-1.1 3.6-.9 6.1.2zM215 62.4c0 .3-.4.8-1 1.1-.5.3-1 .1-1-.4 0-.6.5-1.1 1-1.1.6 0 1 .2 1 .4zm146.4 4.5c.3.4-.6.6-1.9.3-1.4-.2-2.5-.6-2.5-.8 0-.8 3.9-.4 4.4.5zM196 69.8c0 .5-.7.9-1.5.9s-1.2-.4-.9-.9c.3-.4.9-.8 1.5-.8.5 0 .9.4.9.8zm196.5.2c.3.5.2 1-.4 1-.5 0-1.3-.5-1.6-1-.3-.6-.2-1 .4-1 .5 0 1.3.4 1.6 1zm48.5 3.6c0 .2-.9 0-2-.6s-2-1.3-2-1.6c0-.2.9 0 2 .6s2 1.3 2 1.6zm.3 10.3c1.7 1.6 2.7 3.3 2.3 3.9-1.2 2-2.7 1.3-3.7-1.8-.6-1.7-1.7-3-2.5-3-2 0-3-3-1.3-4.1 1-.6 1.5-.3 1.7.7.2.9 1.8 2.8 3.5 4.3zM157.5 93c-.3.5-1.6 1.5-2.8 2.1-1.9.9-1.9.8.3-1 2.8-2.3 3.4-2.6 2.5-1.1zm302.4 8.2c1.3 1 2.1 1.8 1.7 1.8-.9 0-9.6-5.9-9.6-6.6 0-.5 4.2 2.1 7.9 4.8zM152 107c-7.4 6.8-7.2 7.8.4 2.4 3.2-2.4 4.4-2.9 3.1-1.4-3 3.3-10.6 8.4-9.9 6.5.7-1.8-.7-2-2.4-.3-.8.8-1.2.9-1.2.1 0-1.3 3.4-4.6 10-9.7 7.1-5.5 7.1-4.1 0 2.4zm21.5 11c-.3.5-1.4 1-2.3 1-1.5 0-1.5-.2-.2-1 2-1.3 3.3-1.3 2.5 0zm-36.5 1.5c-.7.9-1.5 1.3-1.7 1.1-.7-.7.7-2.6 1.9-2.6.6 0 .6.6-.2 1.5zm344 9.7c0 1.1-1.7.2-4.7-2.5-3.6-3.2-2.7-4.1 1.2-1.1 1.9 1.4 3.5 3.1 3.5 3.6zm-350.4-3c-.9 1.2-1.6 3-1.6 4 0 1.1-.5 1.5-1.5 1.2-1.9-.8-1.1-4.3 1.3-6.2 2.5-1.9 3.5-1.4 1.8 1zm340.6 1.2c4.5 3.5 10.6 10.6 9 10.6-1.3 0-15.9-13.9-14.6-14 .6 0 3.1 1.5 5.6 3.4zm-318.3 1.3c-1.4 1.6-4.6 5-7.1 7.8-16.3 17.9-26.1 30.9-33.3 44-2.1 3.8-6.1 10.8-8.9 15.5-2.8 4.7-8 15-11.6 22.9-3.6 8-6.6 13.8-6.8 13-.3-1.9 7.7-21.4 11-26.5 3.8-6 11.5-22.4 12.3-26.4 1.6-7.6 7.3-16.3 25-37.7 4.6-5.6 9.4-10.7 10.7-11.4 1.2-.7-1.4 3-5.8 8.2-16.9 19.8-21 24.9-23.2 29.1l-2.3 4.3 3.2-3.5c1.7-1.9 4.9-5.8 7.1-8.5 2.2-2.8 5.6-7 7.6-9.5 4.3-5.3 22.9-24 23.9-24 .4 0-.5 1.2-1.8 2.7zm-13.9-.3c0 .1-1.3 1.7-3 3.4-3.5 3.7-4 3.2-.7-.8 1.9-2.5 3.7-3.8 3.7-2.6zm-29.9 11.9l-3.4 3.2 2.8-3.8c1.5-2.1 3-3.5 3.3-3.2.3.3-.9 2-2.7 3.8zm6.9 1.7c.6 4-.6 6.5-7.6 17.1l-7.6 11.4.7-4.7c.9-6.6 5-16.4 9.3-22 3.5-4.6 4.8-5 5.2-1.8zm11.3-.5c-.3.9-.8 1.4-1 1.1-.3-.3-.2-.9.2-1.5.9-1.6 1.5-1.3.8.4zm27.7 7c-2.4 2.5-4.6 4.5-4.9 4.5-.6 0 3.7-4.8 6.4-7.2 3.8-3.3 2.9-1.8-1.5 2.7zm-52-.1c0 .3-.4.8-1 1.1-.5.3-1 .1-1-.4 0-.6.5-1.1 1-1.1.6 0 1 .2 1 .4zm55 5.3c-2 2.6-6 5.9-6 5 0-.6 7.1-7.7 7.7-7.7.2 0-.5 1.2-1.7 2.7zm0 9c-12.2 11.7-16.7 17.8-25 34.1-3.4 6.8-6.4 12.1-6.7 11.8-.2-.2.5-2.4 1.5-4.8 1.1-2.3 3.2-7 4.7-10.3 1.4-3.3 3.8-7.8 5.3-10 3.2-4.7 28.1-30.5 29.5-30.5.6 0-3.6 4.4-9.3 9.7zm-44.5-3c-4.4 7.8-9.5 15.7-9.5 14.9 0-.9 1.9-4.2 7.3-12.9 3.1-5 4.8-6.5 2.2-2zm67.5-.7c0 .5-.5 1-1.1 1-.5 0-.7-.5-.4-1 .3-.6.8-1 1.1-1 .2 0 .4.4.4 1zm-1 3.9c0 .5-.7 1.2-1.6 1.5-1.4.5-1.5.4-.4-.9 1.4-1.7 2-1.9 2-.6zm305.5 2.7c.9 1.5 1.2 2.3.6 2-1.1-.7-3.5-4.6-2.8-4.6.3 0 1.2 1.2 2.2 2.6zm-330.9 8.5c-9 9.5-10.2 11.2-17.3 25.6-4.2 8.5-8 15.6-8.4 15.9-1.3.8-.2-1.9 7.3-17.5 6.7-13.8 7.4-14.9 16.7-24.3 5.4-5.4 10.1-9.8 10.5-9.8.5 0-3.5 4.6-8.8 10.1zM90 170.3c-2 4.4-4 6.9-4 4.8 0-1.1 5.3-10 5.8-9.6.1.1-.7 2.3-1.8 4.8zm52.5.2c-2.1 2.5-4 4.3-4.3 4.1-.3-.3 1.2-2.6 3.3-5.1 2-2.5 3.9-4.4 4.2-4.1.3.3-1.2 2.6-3.2 5.1zm341.5 2.7c1.8 3.3 2 4 .6 2.9-2.1-1.7-5-7.1-3.8-7.1.5 0 1.9 1.9 3.2 4.2zm30.4-.6c.3.8.2 1.2-.4.9-.6-.3-1-1-1-1.6 0-1.4.7-1.1 1.4.7zM166 174c-.8.5-1.9 1-2.5 1-.5 0-.3-.5.5-1s2-1 2.5-1c.6 0 .3.5-.5 1zm-47.5 15.2c-3.7 6.7-10 19.2-14.1 27.5-4.1 8.4-7.7 15.3-7.9 15.3-.7 0 .5-2.8 9.1-20.8 8.7-18 18.3-35.6 19.1-34.8.2.2-2.5 6-6.2 12.8zm15.1-6c-1.3 2.9-5.9 12.5-10.3 21.3-11.6 23.7-19.5 41-22.8 50.5-3.8 10.7-4.2 14.5-5.1 56.6-.5 20.5-.4 28.3.5 28.8.8.5 1.1-1.4 1.2-6.6 0-4 .2-8.9.4-10.8.1-1.9.5-9.8.9-17.5 1.2-23.2 1.5-27.7 2.7-35 1.3-7.7 6.1-22.6 10.4-32 6-13.2 12.7-26.6 13.1-26.2.5.4-1.7 5.4-10.6 24.1-3.3 7-6.6 15.8-8.5 22.6-.1.5-1.3 6.2-2.2 10.5-.4 2.2-1.6 44.3-1.6 59.5-.1 5.2.3 12 .7 15 .4 3 .9 6.2 1 7 2.3 16.6 9.1 37.9 16.3 51 2 3.6 5.8 10.8 8.5 16 8.6 16.3 12 21.1 28.2 40 3.1 3.6 5.6 7.2 5.5 8 0 2-15.2-14-19.8-20.9-2-2.9-4.4-6.5-5.4-8-1-1.4-5.1-9.1-9.1-17.1-4.1-8-9.6-18.3-12.3-23-6.1-10.6-9.4-18.1-12.9-29-2.6-8.2-5.4-13.5-4-7.9.3 1.4.8 4.3 1.2 6.4 1 6.3 3.9 14.5 9.4 26 7.8 16.5 15 32.8 14.6 33.2-.2.2-2.7-3.8-5.5-8.9-2.9-5.1-5.9-10.4-6.7-11.8-.8-1.4-4.8-9.5-8.9-18-4.2-8.8-7.4-14.5-7.5-13.2 0 2.8 3.9 12.7 11 27.7 6.6 14.1 10.2 22.6 9.7 23.1-.2.2-1.2-1.4-2.2-3.6-1-2.1-2.7-4.7-3.7-5.7-2.5-2.2-4.3-5.8-5.1-9.8-.3-1.7-3.8-9.5-7.7-17.5-5.9-11.9-7-13.7-6.6-10.3.9 6.1 2.9 11.7 9 24.6 6.7 14.4 8 17.6 7.2 18.4-.3.3-2.2-2.9-4.1-7.3-2-4.3-4.9-10.4-6.4-13.4-1.6-3-3.9-8.3-5.1-11.8-1.3-3.4-2.7-6.5-3.1-6.8-.5-.3-.9-1.3-.9-2.3 0-.9-.7-2.6-1.5-3.7-1.3-1.7-1.4-1.5-.9 3.1.5 4.7.4 4.9-1 3.1-.9-1.1-1.6-2.7-1.6-3.5 0-.9-.5-2.3-1.1-3.1-1.9-2.6-.1 5.3 4.2 18.3 4.3 13.5 4.9 16.8 2 12-1.1-1.7-2.9-3.4-4.1-3.8-1.1-.4-3.2-3-4.7-5.8-2.9-5.7-4-4.7-2.4 2.3 1.3 6-.1 4-4.5-6.4-4.1-9.7-5.6-10.1-2.8-.9C71 399 71.9 403 71.2 403c-.3 0-1.4-.7-2.3-1.6-1.7-1.6-1.8-1.5-.9 1.5.5 1.9.5 3.1-.1 3.1-.5 0-.9-.4-.9-.8 0-.5-1-1.9-2.2-3.2l-2.2-2.4-.6 2.5c-.5 2-1 1.3-3.3-4.6-3.5-8.9-6.3-14-6.9-12.9-.5.8 1.9 14.2 3.6 20.5 1.7 6.2-1.6-1.7-5.8-14-5.3-15.1-6.3-19.4-7.2-28.2-1.4-14.1-.6-54.1 1.1-56.9.6-1 1.3-5.5 2-12.8.4-3.7.9-7.5 1.1-8.5.7-2.4 2.3-1.1 1.9 1.6-.2 1.2-.6 5.6-1 9.6-.3 4.1-1.1 9.8-1.6 12.5-1.4 7.5-1.5 33.8-.1 36.1.9 1.6 1.2.3 1.3-7 .1-5 .2-10.6.3-12.5.5-6.9 1.8-19.5 2.1-20 .2-.3.6-2.5.9-5 .3-2.5 1.3-7 2.2-10 .9-3 1.6-7.4 1.6-9.8-.1-2.3.3-4 .7-3.8 2.6 1.6 4 20.9 3.1 43.4-.3 6.5.2 9.3 1.4 8.1.2-.2.7-6.3 1.1-13.4.3-7.2.8-13.9 1-15 .2-1.1.4-3.4.4-5 .1-1.8.4-2.5.9-1.8.4.7.7 11.2.6 23.4-.2 22.2.1 26.3 1.7 23.8.5-.9 1-.3 1.4 1.7 1.6 7.7 2.8 11.3 3.6 10.9.4-.3.6-1.5.4-2.6-.3-1.2-.7-8.5-1.1-16.3-.4-10.8-.9-14.4-2.1-15.3-1.1-.9-1.3-2.3-.9-5.4.3-2.3 1-4.7 1.5-5.3 1-1.2 1.9-6.3 2.6-15.1.2-3.3.7-9.2 1.1-13 .6-7 6.9-31.9 9.8-38.5 2.4-5.6 1.9-2.1-1.3 8.3-4.8 15.4-5.4 19.7-6.7 50.2-1.1 25.4-.9 41.5.5 41.5.6 0 .9-.8.9-1.8-.1-2.1 1.3-33 1.7-39.2.2-2.5.4-6.4.4-8.8.1-2.3.6-4.2 1.1-4.2.7 0 .8 4.8.5 13.7-1.3 29.4-1.3 34.3-.4 34.3.5 0 1-1.9 1.1-4.3 0-2.3.2-5.3.3-6.7.9-8.9 1.6-18.7 2-26 .7-14.1 1.6-23.3 2.5-27 1-3.8.5 36.4-.5 55.6-.5 7.6-.3 11.4.4 11.8.6.4 1.1 0 1.2-1.1.1-4 .9-16.1 1.3-20.8.3-2.8.8-9.3 1.1-14.5.6-10.3 1.4-17.3 2.1-17.9.2-.2.5 4.3.5 10 .2 12.4.2 9.7-.6 19.4-1.2 14.3-1.3 23.2-.4 24.6.6 1 .9.8 1-1.1 0-1.4.2-3.9.4-5.5.3-3.8 1.4-24.3 2.1-39.5.4-10.1 1.5-20.2 3-28.8 1.3-7.1 6.5-19.6 16.6-40.2 6.1-12.4 12.8-26.3 14.9-30.8 3.5-7.6 7.4-14.2 8.4-14.2.2 0-.7 2.4-1.9 5.2zm19.2-1.2c-.7 1-1.4 1.7-1.7 1.5-.4-.4 1.8-3.5 2.5-3.5.2 0-.1.9-.8 2zm375 25.3c4 7.8 8.1 16.9 9.2 20.2 2.6 8 .2 4.7-3.5-4.7-1.6-4-5.8-12.9-9.3-19.7-3.5-6.9-5.7-11.9-4.9-11.3.8.7 4.6 7.6 8.5 15.5zm-1.4-14.7c.3.8.2 1.2-.4.9-.6-.3-1-1-1-1.6 0-1.4.7-1.1 1.4.7zM490 194c0 .5-.2 1-.4 1-.3 0-.8-.5-1.1-1-.3-.6-.1-1 .4-1 .6 0 1.1.4 1.1 1zm-8 7.4c0 .6-.7.2-1.5-.8-.8-1.1-1.5-2.5-1.5-3 0-.6.7-.2 1.5.8.8 1.1 1.5 2.5 1.5 3zm6.9-.8c1.2 2 2 3.8 1.8 4.1-.4.4-4.7-6.3-4.7-7.3 0-1.1 1-.1 2.9 3.2zm5 .9c0 .5-.6.1-1.4-.9-.8-1.1-1.5-2.4-1.5-3 0-.5.7-.1 1.5 1 .8 1 1.4 2.3 1.4 2.9zm37.1-.5c.6 1.1.8 2 .6 2-.3 0-1-.9-1.6-2-.6-1.1-.8-2-.6-2 .3 0 1 .9 1.6 2zm-30.9 11.6c3.1 6.9 3.7 9 1.6 5.9-2.3-3.4-6.7-13.6-5.5-12.9.6.4 2.3 3.5 3.9 7zm-389 5c-5.4 12.1-12 25.4-12.6 25.4-.2 0-.2-.9 0-2.1.6-2.8 16.5-35.3 17-34.7.3.2-1.7 5.4-4.4 11.4zM486 208c.6 1.1.8 2 .6 2-.3 0-1-.9-1.6-2-.6-1.1-.8-2-.6-2 .3 0 1 .9 1.6 2zm-7 7.4c0 .6-.7.2-1.5-.8-.8-1.1-1.5-2.5-1.5-3 0-.6.7-.2 1.5.8.8 1.1 1.5 2.5 1.5 3zm-3.1 0c1.2 1.8 2.1 3.9 2.1 4.6 0 1.4-3-2.1-4.9-5.8-1.9-3.5.5-2.6 2.8 1.2zm34 10.5c1.6 4.2 3.2 9.4 3.6 11.6.4 2.4-.7.2-2.8-5.5-1.9-5.2-4.2-11.3-5.1-13.5-1.4-3.4-1.4-3.7-.1-2.1.8 1.1 2.8 5.4 4.4 9.5zM61.3 218c-.3 1.1-.9 1.7-1.5 1.4-.5-.3-.4-1.2.3-2 1.6-1.9 1.8-1.8 1.2.6zm480.6 7c0 .8-.9-.3-1.9-2.5-2.4-5.3-2.4-7 0-2.5 1.1 1.9 1.9 4.2 1.9 5zm-24.1-3.9c-.3.8-.7.3-1.1-1-.4-1.7-.3-2.1.5-1.3.5.5.8 1.6.6 2.3zm-34.8 7.4c0 .8-.2 1.5-.4 1.5s-.6-.7-1-1.5c-.3-.8-.1-1.5.4-1.5.6 0 1 .7 1 1.5zm52.5 6.5c.3.5.1 1-.4 1-.6 0-1.1-.5-1.1-1 0-.6.2-1 .4-1 .3 0 .8.4 1.1 1zm-443.2 8.5c-.3.9-.8 1.4-1 1.1-.3-.3-.2-.9.2-1.5.9-1.6 1.5-1.3.8.4zM549 246c0 1.3-.1 1.3-1 0-.5-.8-1-2.2-1-3 0-1.3.1-1.3 1 0 .5.8 1 2.2 1 3zm-28.7 0c.3 1.1.1 2-.4 2s-.9-.9-.9-2 .2-2 .4-2 .6.9.9 2zm-432 10c-.3 1.1-.7 2-.9 2-.2 0-.4-.9-.4-2s.4-2 .9-2 .7.9.4 2zM522 266.2c2.9 12.6 3 13.4 3.7 29.5.5 13.1 0 20.3-1.3 19-.4-.3-.8-4.3-.9-8.9-.5-10.7-1.5-25.5-2-29.3-1.4-9.3-1.7-11.4-2.4-15.7-1.3-7.9.6-4.3 2.9 5.4zm25.7 2.6c.5 4.6.6 8.5.2 8.7-.3.3-.9-2.6-1.3-6.3-.3-3.7-.9-8.1-1.2-9.7-.3-1.9-.2-2.6.4-2 .6.5 1.4 4.7 1.9 9.3zm-18.8-1.4c.4 3.1.4 5.3 0 4.9-1-1-2.4-12.1-1.4-11.1.3.3 1 3.1 1.4 6.2zm-477.6-3.9c-.3.9-.8 1.4-1 1.1-.3-.3-.2-.9.2-1.5.9-1.6 1.5-1.3.8.4zm7 5.4c.5 1.9-.9 4.1-2.5 4.1-.4 0-.8-1.4-.8-3 0-3.4 2.5-4.2 3.3-1.1zm435.1.6c.3.8.1 1.5-.4 1.5-.6 0-1-.7-1-1.5s.2-1.5.4-1.5.6.7 1 1.5zm42.9.5c.3 1.1.1 2-.4 2s-.9-.9-.9-2 .2-2 .4-2 .6.9.9 2zm-485.9.5c-.4.8-.8 1.5-1 1.5-.2 0-.4-.7-.4-1.5s.4-1.5 1-1.5c.5 0 .7.7.4 1.5zm-1.7 7.7c-.3.7-.5.2-.5-1.2s.2-1.9.5-1.3c.2.7.2 1.9 0 2.5zM517 276c0 .5-.4 1-1 1-.5 0-1-.5-1-1 0-.6.5-1 1-1 .6 0 1 .4 1 1zm15.4 8.3c.2 1.5 0 2.7-.5 2.7s-.9-1.4-.9-3.2c0-3.7.7-3.4 1.4.5zm-21.5 1.5c1.3 2.4 3.3 20.2 2.7 23.7-.7 3.7-1.1 3.9-2.8 1.3-1.6-2.5-2.7-8.1-3.4-17.3-.3-3.2-.7-6.1-.9-6.4-.6-.6 1.5-3.1 2.6-3.1.5 0 1.3.8 1.8 1.8zm-7.9 2.6c-1.4 1.4-2.4 0-1.6-2.1.6-1.5.8-1.5 1.6-.3.6.9.5 1.9 0 2.4zm36.3 31.8c0 11.4-.4 23.6-.7 27-.4 3.4-.9 9.6-1.1 13.7-.7 10-1.1 12.1-4.6 28.6-4.3 19.6-9.1 31-20.2 47.5-8 12-25.4 32.6-26.5 31.5-.4-.4 7.2-10.2 8.9-11.5 1-.8 16-24.4 21.2-33.5 9-15.5 15.5-34.1 17.6-50.2 3-23.5 3.3-27.4 3.6-51.3.2-12.4.4-24.3.6-26.5l.2-4 .6 4c.3 2.2.5 13.3.4 24.7zm-6.7 3c-.3 16.7-.8 31.6-1 33.3-.3 1.6-.7 6-1 9.7-.6 7.5-.5 7.1-4.1 22.2-4.8 20-10.3 31.8-22.8 49.3-4.7 6.5-11.3 14.7-14.7 18.3-6.4 6.7-6.7 6.5-1-.7 1.8-2.3 4.7-6.5 6.4-9.2 1.7-2.7 4.7-7.4 6.7-10.3 10.6-15.5 22.8-42.1 24.4-53.3.4-2.2.8-4.7 1-5.5.3-.8.7-4.2 1-7.5.3-3.3.8-7.1 1-8.5.2-1.4.6-5.2 1-8.5.3-3.3.8-8 1.1-10.5.4-2.4.8-13.5.9-24.5.4-25.5.4-24.5 1.1-24.5.4 0 .4 13.6 0 30.2zM124.3 296c.3 1.1.1 2.3-.4 2.6-.5.3-.9-.6-.9-2 0-3.1.6-3.4 1.3-.6zm381.2 4c0 2.2-3.9 1.9-4.3-.3-.3-1.5.1-1.8 2-1.5 1.2.2 2.3 1 2.3 1.8zm-398 2c-.2.4.5 2 1.7 3.5 1.9 2.4 2 2.9.6 3.9-2 1.5-3.2 6.7-1.8 7.6.8.5.8 1.5 0 3.5s-.7 3.1.2 4.2c.6.8 1.3 3.4 1.4 5.8.4 6.4 2.2 18.5 3.3 22 .8 2.5 1 1.6 1.1-5 .1-4.4.1-8.5 0-9-.1-.6.2-.6.7-.2.8.8.9 1.2 1.2 3.9.3 2.7 2.1-1.7 2.1-5.1 0-6.5 1.2-2.6 2.5 8.5.4 3.3 1.4 8.8 2.2 12.4.8 3.6 1.6 8.5 1.9 11l.4 4.5-2.5-5-2.5-5 .3 4.7c.2 5.5-.3 5.2-2.8-1.7-2.6-7-3-4.1-.6 4.5 2.1 7.3 2 8.5-.2 8.5-.7 0-1.3.6-1.3 1.2-.1.7-.2 1.9-.3 2.5-.2 1.8-2.9-4.4-5.3-12.2-3.6-11.9-4.7-22.5-4.6-43.5.2-22 .6-27.8 1.9-26.9.5.3.7.9.4 1.4zm446.9 16c-.4 1.2-.8 1.2-2-.5-1.4-1.9-1.5-1.9-2 .3-.9 3.2-2.4 1.7-2.4-2.4 0-3.4 1.2-4.5 2.6-2.3.4.8 1 .5 1.7-.7 1-1.7 1.1-1.6 1.9 1.1.4 1.7.5 3.7.2 4.5zm-26.1.1c-.5.5-.7-.7-.4-2.9.5-3.4.6-3.5.9-.8.2 1.6 0 3.2-.5 3.7zM26 319.9c0 .6-.4 1.3-1 1.6-.5.3-1-.1-1-.9 0-.9.5-1.6 1-1.6.6 0 1 .4 1 .9zm11.5 11.6c.8 13.7 1.6 23.7 2 26.5.2 1.4.7 5 1 8 .3 3 .8 6.7 1.1 8.2.3 1.6.1 2.8-.4 2.8-2.4 0-4.4-14.6-4.9-35-.5-20.8.1-26.9 1.2-10.5zm475.8-6c.4.8.2 1.7-.3 2-.6.4-1-.3-1-1.4 0-2.5.6-2.7 1.3-.6zM22 331.9c0 2.6-1.9 7.5-2.6 6.8-.9-.9.6-8.7 1.7-8.7.5 0 .9.9.9 1.9zm44.4.6c.3.8.1 1.5-.4 1.5-.6 0-1-.7-1-1.5s.2-1.5.4-1.5.6.7 1 1.5zM550 342.7c-.2 11.5-.1 12.3 1.3 12 .6-.1 1.1.2 1.1.8-.1.5-.4 2.8-.7 5-.7 5-1.6 7.5-2.8 7.5-.5 0-.9.5-.9 1.1 0 .6.6.9 1.4.6 1.9-.8 1.2 8.8-1.6 20.8-1.1 4.9-2.2 12.8-2.4 17.3-.3 7.7-.7 9.1-5.1 17.4-6.2 11.8-9.2 15.2-12.6 13.9-2.1-.8-2.7-.5-4.6 1.9-2.4 3.3-2.6 4-1.1 4 .6 0 1.5-1.1 2.2-2.5.6-1.3 1.4-2.2 1.9-1.9.4.2-1 3-3.1 6.2-2.1 3.1-4.2 6.8-4.6 8.2-.6 2.3-.6 2.4 1.2 1 2.1-1.7 2.2-1.8-5 9.2-3.4 5.2-5.2 6.2-4.2 2.3.4-1.4.3-2.5-.2-2.5-1 0-5.6 4.9-10.7 11.5-5 6.5-10.7 12.5-11.8 12.5-.5 0-.2-1.2.8-2.6.9-1.4 1.5-2.8 1.3-3-.4-.4-2 .9-8 6.5-3.8 3.4-3.5 1.4.5-3 1.8-2 5.4-6.1 7.9-9 2.6-3 5.8-6.8 7.3-8.4 1.5-1.7 7.8-9.8 14-18.1 17.3-23.2 27.2-43.7 29.9-61.8.4-2.1.8-4.1 1-4.5.3-.5.9-4.7 2.1-15.6.7-6.2 1.7-14.1 2.1-16 .5-2.7 2.3-15.7 2.4-17.3 0-.6.3-1.2.6-1.2s.5 3.5.4 7.7zm-57 14.7c0 .3-.4.8-1 1.1-.5.3-1 .1-1-.4 0-.6.5-1.1 1-1.1.6 0 1 .2 1 .4zm71 10.1c-.3 2.7-1 4-2 4-1.9 0-1.8-8.1.1-11.6l1.3-2.4.6 3c.3 1.6.3 4.8 0 7zm-537.6 3.6c-.3.5-1 .7-1.5.3-.5-.3-.7-1-.3-1.5.3-.5 1-.7 1.5-.3.5.3.7 1 .3 1.5zm4 6.4c.3.8.1 1.5-.4 1.5-.6 0-1-.7-1-1.5s.2-1.5.4-1.5.6.7 1 1.5zm100.3 11.7c-.3.8-.6.5-.6-.6-.1-1.1.2-1.7.5-1.3.3.3.4 1.2.1 1.9zm-92.5 19.5c3.1 5.8 4.8 11.6 3.9 13.2-1.6 2.6-6.7-6.8-7.7-14.2-.8-5.1.8-4.7 3.8 1zm494.6.5c-1.4 4.1-4.9 10-5.5 9.4-.5-.4 5.5-12.6 6.2-12.6.2 0-.1 1.5-.7 3.2zM94.9 419.6c3 7.4 4.7 13.4 3.7 13.4-.8 0-4-7.5-6-14-1-3-2-6.2-2.2-7-1.4-4.2 1.8 1.3 4.5 7.6zm-41.2-2.9c.8 2.1 3.7 8.7 6.5 14.6 2.7 6 4.7 11.4 4.5 12-.1.5-1.3-1.2-2.4-3.9-1.2-2.7-3.9-8.7-6.1-13.4-2.2-4.7-4.3-9.5-4.7-10.8-1-3.6.5-2.5 2.2 1.5zm5.7 1.3c-.7.6-2.4-2.2-2.3-4 0-.9.6-.5 1.4 1 .7 1.4 1.1 2.7.9 3zm493.8-2.3c2.6 2.4 2.3 6.1-.6 7.5-4.7 2.1-7-3.4-3.4-8 1.3-1.6 1.8-1.5 4 .5zm-475.8 2.8c.3.8.1 1.5-.4 1.5-.6 0-1-.7-1-1.5s.2-1.5.4-1.5.6.7 1 1.5zm-6.1 7.7c3.1 6.5 11.3 25 15.4 34.8l1.4 3.5-2-2.5c-2.5-3.2-10.3-18.7-12.9-26-1.1-3-3.1-8.3-4.5-11.8-3.4-8.2-2-7.2 2.6 2zm-35.1 1c-.9.9-1.2.7-1.2-1.2s.3-2.1 1.2-1.2c.9.9.9 1.5 0 2.4zm45.3.3c1.7 3.8 2.7 7.5 1.9 7.5-.6 0-4.4-8.8-4.4-10.1 0-1.7.8-.9 2.5 2.6zm-17.5.3c0 1.5-.2 1.5-1 .2-1.3-2-1.3-3.3 0-2.5.6.3 1 1.4 1 2.3zm459 .1c-1.1 2.1-3 3.7-3 2.5 0-.8 3-4.4 3.7-4.4.2 0-.1.9-.7 1.9zm-400.7 8.3c3.6 6.5 7.4 12.3 12.5 19 2.4 3.2 3.9 5.8 3.4 5.8-1.9 0-12.1-14.5-16.8-24-4.4-8.7-3.7-9.3.9-.8zm5.7-4.1c0 2.3 13.3 20.9 22.2 31.1 5.5 6.2 7.3 8.8 6.3 8.8-.8 0-7.2-6.8-10.3-10.9-1.5-2-3.7-4.4-4.9-5.4-2.3-1.9-10.4-13-12.7-17.5-2.2-4.3-2.8-7.2-1.7-7.2.6 0 1.1.5 1.1 1.1zm417 .9c1.4-.8 1.9-.5 2.4 1.3.8 3.1.7 4-.8 6-1.7 2.2-5.7 3.1-6.7 1.5-.6-.9-1.2-.8-2.3.2-4 3.3-2.7-1.4 2.3-8 2-2.7 2.6-3.1 2.9-1.7.3 1.3.8 1.5 2.2.7zm-388.1 15.5c7 7.5 10.1 11.5 10.1 12.8 0 1.9-6.8-5.4-15.6-16.8-4.7-6-6.7-9-4.3-6.5 2.3 2.5 6.7 7.2 9.8 10.5zm-56.2-10.3c-.3.8-.6.5-.6-.6-.1-1.1.2-1.7.5-1.3.3.3.4 1.2.1 1.9zm-69.7 2c0 .5-.4.8-1 .8-.5 0-1-1-1-2.3 0-1.8.2-1.9 1-.7.5.8 1 1.8 1 2.2zm57 3.2c0 1.8-1.7-.8-2.4-3.4l-.7-2.5 1.5 2.5c.9 1.4 1.5 2.9 1.6 3.4zm65.1 6.8c1.9 3.5.1 1.7-4.5-4.5-4.7-6.1-4.7-6.2-.6-1.7 2.2 2.5 4.5 5.3 5.1 6.2zM551 442c-.6 1.1-1.3 2-1.6 2-.2 0 0-.9.6-2s1.3-2 1.6-2c.2 0 0 .9-.6 2zm-413.6.6c.3.8.2 1.2-.4.9-.6-.3-1-1-1-1.6 0-1.4.7-1.1 1.4.7zm38.4 4.1c3.5 3.7 4.2 5.3 1.5 3.2-2.4-1.8-8.3-7.9-8.3-8.6 0-.8 3.1 1.7 6.8 5.4zm-101.3 4c2 4.3 5.7 11.3 8.2 15.6 4.5 7.7 5.5 11.5 1.5 6-3.1-4.4-12.9-23.5-13.6-26.6-1.1-4.6.2-3 3.9 5zm97-2.1c.8 1.3 1.2 2.4.8 2.4-1 0-5.3-4.2-5.3-5.1 0-1.5 2.9.2 4.5 2.7zM45 447.5c0 .8-.4 1.5-1 1.5-.5 0-1-.7-1-1.5s.5-1.5 1-1.5c.6 0 1 .7 1 1.5zm9 2.4c.9 3.1-.3 5.4-1.4 2.5-.7-1.9-.8-6.9-.1-6.2.3.3 1 1.9 1.5 3.7zm18.5 8.3c3.1 6.2 5.3 10.8 4.7 10.3-1.3-1.3-8.7-15.1-10.1-18.8-2.1-5.5-.1-2.4 5.4 8.5zm96.5-.2c-.1.9-1.7-.3-4-3-5.2-5.8-5.2-7.5 0-2.5 2.2 2.1 4 4.6 4 5.5zm-19.8-.5l1.1 2-2.3-2c-1.2-1.1-3.1-3.4-4.3-5l-2-3 3.2 3c1.8 1.6 3.7 3.9 4.3 5zm-49.3 9c0 .5-.6.1-1.4-.9-.8-1.1-1.5-2.4-1.5-3 0-.5.7-.1 1.5 1 .8 1 1.4 2.3 1.4 2.9zm48.1 5.3c0 1-4.2-3.3-5.2-5.3-.5-1.1.4-.5 2.1 1.4 1.7 1.8 3.1 3.6 3.1 3.9zm19-5.8c0 .5-.2 1-.4 1-.3 0-.8-.5-1.1-1-.3-.6-.1-1 .4-1 .6 0 1.1.4 1.1 1zm351.4 5.2c-.8 3.5-1.3 7.1-1 8 .2 1 0 2.1-.5 2.4-.5.3-.9.1-.9-.4 0-.6-1-.8-2.2-.4-1.4.3-1.9.2-1.4-.6.4-.7.2-1.2-.3-1.2-.6 0-1.1-.8-1.1-1.8 0-2.5 6.8-12 8.7-12.2.1 0-.5 2.8-1.3 6.2zm-41.3-.3c-3.9 4.9-18.9 19.1-20.2 19.1-.6 0-3.3 1.7-6.2 3.9-4.7 3.4-35.6 20.8-39.9 22.4-3.3 1.2-1.8-.8 2-2.8 7-3.7 25.7-15.1 34.2-21 8.9-6 15.1-11 28.5-22.8 2.2-2 4.2-3.4 4.4-3.2.2.2-1.1 2.2-2.8 4.4zM75 481.3c0 .6-.9.2-2-.8s-2-2.3-2-2.8c0-.6.9-.2 2 .8s2 2.3 2 2.8zm95.9 10.6c13.9 11.1 11.3 10.7-3.7-.7-4-3.1-7.8-6.5-8.4-7.6-1-1.9-1-2 .9-.6 1.1.8 6.1 4.8 11.2 8.9zm-105.8 2.4c-.1 1.2-1.5.9-1.9-.4-.3-.6.1-1 .8-.8.6.3 1.1.8 1.1 1.2zM456 503c-3.6 3-15.2 10.1-18.2 11.3-1.2.4-1.5.2-1.2-.8.3-.8 1.6-1.7 2.7-2.1 1.2-.4 3.5-1.6 5.2-2.8 3.4-2.4 13.8-8.5 14.5-8.5.3 0-1.1 1.3-3 2.9zm-381 .5c2.5 1.3 4.2 4.5 2.5 4.5-1.2 0-5.4-3.2-5.9-4.6-.7-1.8-.2-1.8 3.4.1zm8.7.7c3 2.8 3.3 6 .2 3.2-2.4-2.1-4.3-5.4-3.2-5.4.3 0 1.7 1 3 2.2zm395.7 9c.8.5.7 1.1-.3 2-1.1 1-1.4 1-1.8 0-.3-.6-1.2-1.2-2-1.2-1.4 0-1.3-.3.3-2.1 1.3-1.5 2-1.7 2.3-.7.2.7.9 1.6 1.5 2zM458 519c0 1.8-13.6 10-21.6 13-3.9 1.5-1.9-.7 2.8-3.1 2.3-1.2 6.8-4.1 10.1-6.5 5.9-4.3 8.7-5.4 8.7-3.4zm-.2 7.7c-3.2 3.8-3.1 4.5.3 2.8l3.4-1.8-2.5 2.5c-1.4 1.4-3.3 3.7-4.3 5.1-2.1 3.2-7.4 7.2-10.5 8.2-2.2.6-2.3.5-1.3-1.4.8-1.3.8-2.1.2-2.1-.6 0-.8-.7-.5-1.5.8-1.9 0-1.9-3.6 0-2.1 1.1-2.7 2-2.3 3.5.3 1.1.3 3-.1 4.3-.5 2-1.2 2.3-7.6 2.5-4.5.2-7-.1-7-.7s.5-1.1 1-1.1c.6 0 1-.6 1-1.4 0-1.6 4.3-4.5 12.3-8.3 2.9-1.4 8.1-4.4 11.7-6.8 7.9-5.1 10.4-6.5 10.9-5.9.2.2-.3 1.2-1.1 2.1zM133 531.2c0 1.2-.6.9-2.6-1.3-1.9-2.2-1.9-2.2.4-.8 1.2.8 2.2 1.7 2.2 2.1zm331-.3c0 1.2-2 2.5-2.7 1.8-.7-.7.6-2.7 1.8-2.7.5 0 .9.4.9.9zm-320 8.2l2.5 2.1-3.3-1.8c-1.8-1-4.5-2.9-6-4.1l-2.7-2.3 3.5 2c1.9 1.1 4.6 2.9 6 4.1zm322-5.1c0 .5-.9 1.4-2 2-2.2 1.2-2.7.1-.8-1.8 1.4-1.4 2.8-1.6 2.8-.2zm-312.5 11c.3.6-.1.7-.9.4-1.8-.7-2.1-1.4-.7-1.4.6 0 1.3.4 1.6 1zm296.5-.5c0 .2-1.9 1.4-4.2 2.5l-4.3 2.1 2.8-2.6c2.5-2.2 5.7-3.4 5.7-2zm-288.5 5.9c1.1.8 1.6 1.5 1 1.6-.5 0-2.3-1.2-4-2.6-3.1-2.6-.6-1.8 3 1zm239-.4c-1 1.6-7.6 5.6-10.4 6.3-3.2.8-1.5-.8 4.6-4.4 5.1-3 6.8-3.6 5.8-1.9zm7.5 3c0 .5-.5 1-1.1 1-.5 0-.7-.5-.4-1 .3-.6.8-1 1.1-1 .2 0 .4.4.4 1zm-239.3 1.6c-.3.3-1.2.4-1.9.1-.8-.3-.5-.6.6-.6 1.1-.1 1.7.2 1.3.5zm235.3.2c0 .8-4.2 3.1-11 5.9-5 2.1-2.5 0 4.4-3.6 6.5-3.4 6.6-3.5 6.6-2.3zm-1.4 6.1c-.9 1-1.6 2.3-1.4 3 .2.6-1 2.2-2.7 3.5l-3 2.5 3.1-.8c1.6-.5 4.4-1.6 6.2-2.5 1.7-.9 3.6-1.6 4.2-1.6 1.5 0 0 5.2-1.9 6.7-3.1 2.3-15.7 8.4-21.5 10.3-7.1 2.4-6.7 2.4-6 .5.4-1 0-1.5-1-1.5-1.3 0-1.5-.4-.6-1.9 1.4-2.6 1.3-3.4-.4-2.8-1.4.5-3.6-1-3.6-2.5 0-.4 1.5-.8 3.4-.8 2.5 0 3.5-.5 3.9-1.9.3-1.3 4.1-3.8 10.3-7 10.8-5.4 13.8-6.3 11-3.2zm15.4-1.5c0 .2-.8 1-1.7 1.7-1.6 1.3-1.7 1.2-.4-.4 1.3-1.6 2.1-2.1 2.1-1.3zM346.9 570c-2.1 1.2-8.9 2-8.9.9 0-.8 2.1-1.3 7.5-1.7 2.3-.1 2.6 0 1.4.8zm-48.9 1c1.1.8.2 1-3.3.8-2.7-.1-5-.5-5.3-1-.7-1.2 6.8-1 8.6.2zm-31.5 4.6c3 1.2 3 1.3-1.4.8-2.4-.2-5.5-1.1-7-1.9-2.5-1.4-2.5-1.4 1.4-.8 2.2.3 5.4 1.2 7 1.9zm78.1.9c-1.9 1.5-1.9 1.5.3 1.5 1.2 0 2 .4 1.6.9-.3.5-2.2.2-4.5-.7-3-1.3-3.5-1.9-2.2-2.4.9-.4 2.8-.7 4.2-.7 2.4 0 2.4 0 .6 1.4zm-49.2 1c-.4.8-.2 1.5.2 1.5.5 0 1.6.4 2.4 1 1.2.8 1.2 1.1-.3 2.7-2.3 2.7-8.1 1.9-10.2-1.3-1.5-2.3-1.4-2.4.4-2.4 1.1 0 2.6-.7 3.3-1.5 1.8-1.9 4.9-2 4.2 0zm30.6 0c.5.3.7 1.2.3 2.1-.4 1.1-1.6 1.3-5.7.8-3.3-.3-4.6-.2-3.8.4 1.1.7.9 1-.6 1.4-1.1.3-2.5.2-3.1-.2-1.5-.9-.4-3.8 1.7-4.2 3.4-.7 10.3-.9 11.2-.3zm-74.1 4.1c1.7.4 3.1 1 3.1 1.5 0 1.3-2 1-5.5-.6-3.3-1.5-2.4-1.8 2.4-.9z"/><path d="M53 300.1c0 .5.5.7 1 .4.6-.3 1-.8 1-1.1 0-.2-.4-.4-1-.4-.5 0-1 .5-1 1.1zM58 335.8c0 1.1.5 2.4 1 2.7.6.4.9-.2.7-1.4-.4-2.9-1.7-3.9-1.7-1.3zM91.2 353c0 1.4.2 1.9.5 1.2.2-.6.2-1.8 0-2.5-.3-.6-.5-.1-.5 1.3zM93.2 366c0 1.4.2 1.9.5 1.2.2-.6.2-1.8 0-2.5-.3-.6-.5-.1-.5 1.3zM73 386.5c0 .8.4 1.5 1 1.5.5 0 .7-.7.4-1.5-.4-.8-.8-1.5-1-1.5-.2 0-.4.7-.4 1.5zM107 336.6c0 .8.5 1.2 1 .9.6-.4.8-1.1.5-1.6-.9-1.4-1.5-1.1-1.5.7zM546.1 382.6c-1.4 5.1-2.5 13-1.8 12.4.7-.7 3.7-15.3 3.2-15.8-.2-.2-.8 1.3-1.4 3.4zM542 401.1c0 2 .4 2.9.9 2.3 1.5-1.5 1.7-4.7.4-5.1-.9-.3-1.3.6-1.3 2.8zM502.3 468.7c-1.5.5-1.7 2.3-.4 2.3.5 0 1.1-.7 1.5-1.5.3-.8.4-1.5.3-1.4-.1 0-.8.3-1.4.6zM450 532c-.9.6-1 1-.3 1 .6 0 1.5-.5 1.8-1 .8-1.2.4-1.2-1.5 0zM397.5 565c-.3.5-.1 1 .4 1 .6 0 1.1-.5 1.1-1 0-.6-.2-1-.4-1-.3 0-.8.4-1.1 1zM267 43.1c0 .5.5.7 1 .4.6-.3 1-.8 1-1.1 0-.2-.4-.4-1-.4-.5 0-1 .5-1 1.1zM434 47.4c0 .8.5 1.8 1 2.1 1.9 1.1 1 3.5-1.2 3.6h-2.3l2.4 1.7c4.2 3 11.4 7.2 17 9.7 14 6.5 12.7 3.4-1.7-4.3-9.3-4.9-10.4-6.6-4.1-6.4 1.6 0 3-.6 3.3-1.5.9-2.3-1.3-4.4-4-3.7-1.3.4-3.2-.1-4.6-1-2.8-2-5.8-2.1-5.8-.2zM425.5 51c.3.5 1.3 1 2.1 1s1.4-.5 1.4-1c0-.6-.9-1-2.1-1-1.1 0-1.7.4-1.4 1zM152.9 56.6c-1.3 1.5-4.2 3.4-6.4 4.4-4.7 2.1-17.8 13.9-15.5 14 .9 0 4.2-2.2 7.4-5 4.6-3.8 6.3-4.7 7.6-4 1.8 1 5-1.4 5-3.8 0-.6 1.2-2.5 2.6-4.2 3.3-3.8 2.7-5-.7-1.4zM186.8 54.7c-1.8.5-2.4 1.9-1 2.6C187 58 193 56 193 55c0-1-3-1.1-6.2-.3zM134.7 60.8c-2 2.1-3.7 4.7-3.7 5.7.1 2.1.4 1.8 6.1-5.2 4.5-5.5 2.9-5.9-2.4-.5zM460.7 59.6c.3.8.9 1.4 1.3 1.4s1.5 1.8 2.4 4c.9 2.2 2 4 2.5 4s2.2 1.4 3.9 3.1c1.9 2 3.2 2.7 3.7 1.9.8-1.3-1-3.7-3.6-4.5-2-.7-2.7-3.7-.7-3.3 2 .5 2-2.7 0-5.2-2.2-2.8-10.5-3.9-9.5-1.4zM478.6 59.9c-.3.5.1 2.4.9 4.3.7 1.9 1.1 4.5.8 5.7-.4 1.4-.1 2.6.8 3.2.8.4 1.5 1.3 1.5 1.9.1.5.2 1.4.3 1.9 0 .5 1.5 1.4 3.1 2.1 1.7.7 3 1.6 3 2 0 1.4 14.4 16.7 20.6 21.9 7.5 6.2 7 6 4.8 2.5-1-1.7-4.9-6.4-8.6-10.4-3.8-4-6.8-7.6-6.8-8 0-2.3 2.4-1.8 7.4 1.4 6.8 4.3 13.1 12.2 15 18.7 1.1 3.6 4.5 8.6 12.3 18.4 5.9 7.4 12 15.2 13.4 17.3 4.6 6.6 13.7 25.6 13.2 27.4-.2.5.7.8 2 .8 1.5 0 2.9.9 3.7 2.5 1.6 2.9.7 4.3-1.5 2.5-1.2-1-1.5-1-1.5.2 0 1.8 3.8 7.6 8.6 13.2 1.8 2.1 4.1 6.1 4.9 8.7.9 2.7 2.1 4.9 2.7 4.9 1.9 0 .1-10.4-3.1-17.6l-3.1-6.9 2.9 3.5c2.5 2.9 3.1 3.2 3.6 1.8.4-.9.5-3.6.3-5.9-.3-3.1-.8-4.3-2.1-4.5-3.7-.5-8.4-7.1-7.3-10 .6-1.5-5.4-10.5-8.7-13.3-2.6-2.1-2.1.2 1.8 8.3 3.3 6.9 4.7 12.2 2.6 10-.5-.5-2.8-4.5-5.1-8.9-2.4-4.4-4.8-8.7-5.4-9.5-.7-.8-1.8-2.8-2.4-4.4-1-2.3-6.9-10.4-9.2-12.6-.3-.3-3-3.7-6-7.5-3-3.9-6-7.6-6.8-8.3-4.9-5.2-7.8-11.2-5.4-11.2 1.1 0 9 8.4 12.1 12.8 1.2 1.8 2.7 3 3.2 2.7.5-.4-2.5-4.7-6.6-9.7-6.8-8.3-10.5-14.5-14.9-25.1-1.8-4.1-3.3-4.8-3.8-1.5-.2 1.2-.8 2.3-1.4 2.5-1.8.6-3.7-5.2-2.9-8.7.8-3.8-2.6-8.8-8.6-12.5-4.7-3-4.9-3-4.9-.5 0 2.3-1.5 2.7-2.7.6-.4-.7-1.8-1.6-3-2-1.7-.5-2.6-.1-3.8 1.8-1.5 2.3-1.5 2.7.5 6.6 2.9 5.7 2 7.2-1.5 2.6-2.1-2.7-2.9-5.1-3-8.2-.2-5.5-4.1-10.4-5.9-7.5zm23.9 16.2c5 6.8 6.4 9.2 5.9 10.1-.3.4-1.3.4-2.4-.2-2.4-1.3-10-10.9-10-12.6 0-2.8 3.6-1.3 6.5 2.7zM175.4 62.5c-2.2.6-4.9 1-6 .9-3.3-.6-5.4.6-5.4 3 0 2.2.1 2.2 5.5 1.1 5-1 11.7-4.6 10.5-5.8-.3-.2-2.3.1-4.6.8zM150.6 67.7c-.4.9 0 2.3.8 3.1 1.2 1.2 1.6 1.2 2.5-.7.7-1.2.9-2.6.6-3.1-1-1.6-3.2-1.2-3.9.7zM157.4 70.4c-1.4 1.1-1.6 1.8-.8 2.6s1.5.7 2.8-.5c3.1-3.1 1.6-4.7-2-2.1zM143.8 72.6c-.5.4-.8 1.6-.8 2.8 0 1.4.3 1.7 1.1.9.6-.6.9-1.9.7-2.8-.1-.9-.6-1.3-1-.9zM123.5 79.5c-2.2 1.9-6 4.1-8.5 4.9-2.6.7-4.6 2-4.8 3-.4 1.9 1.6 2.1 4.3.2 1.1-.7 3.1-1.6 4.5-1.9 2.3-.6 9.7-8.3 8.8-9.2-.2-.2-2.2 1.1-4.3 3zM145.5 81c-3.8 4-2.3 5.2 1.6 1.3 1.7-1.7 2.7-3.3 2.2-3.6-.6-.4-2.3.7-3.8 2.3zM130.4 87.6c-8 8.9-9.6 11.1-6.7 9.5 3-1.5 14.3-14 14.3-15.6 0-.8-.2-1.5-.4-1.5-.1 0-3.4 3.4-7.2 7.6zM105.5 86c-.3.5-.1 1 .4 1 .6 0 1.1-.5 1.1-1 0-.6-.2-1-.4-1-.3 0-.8.4-1.1 1zM318.5 86.1c-15.8.7-117.9 8.4-124.2 9.5-2.2.3-3.3 1-3.3 2.2 0 .9.7 15.4 1.5 32.2.8 16.8 1.7 38.1 2 47.5.4 9.3.8 17.5 1 18.2.2.7.5 6.4.6 12.6.1 6.3.4 11.9.8 12.5.4.7 6 1.2 15.1 1.3 8 0 16 .3 17.8.6l3.4.6-.7 80.1c-.4 44.1-.9 81.4-1 83.1 0 1.6-.2 13.6-.3 26.5l-.2 23.6-18.6-.4-18.7-.5.7 9.4c.3 5.2.8 31.9 1.2 59.4.3 27.5.9 50.3 1.3 50.6.6.6 160.3-6 161-6.7 1-.9 4.5-119.7 3.6-120-.5-.2-9.5-1-19.9-1.8-10.4-.8-19.2-1.9-19.6-2.3-.7-.8-3.5-41.2-2.9-41.6.5-.4 37.1-5.7 50.4-7.3 29.2-3.7 48-11.7 63-26.8 12-12.1 19.1-27 21.4-45.3 1-7.9 1.6-30.1 2.7-98.8.5-32.1.4-39.5-1-47.7-3.1-18.7-9.5-32-21-43.3-21.8-21.4-57.2-29.7-116.1-27.4zM369 101c21.2 2.6 40 9.3 51.8 18.4 10.8 8.2 18.5 22.5 21.2 39.1.9 5 1 21.8.5 59.5-.8 61.7-1.8 85.2-4 93.5-8 29.5-31.9 46.1-72.5 50.4-5.2.6-16.5 2.2-25 3.6s-20.2 2.8-25.8 3.2c-6 .3-10.6 1.1-10.8 1.7-.5 1.3 4 66.4 4.7 67 .2.2 8.9 1.1 19.3 2 10.4.9 19.1 1.8 19.4 2.1.8.7-2.8 92.9-3.6 93.6-.8.7-133.1 6.4-133.7 5.7-.2-.2-.7-15.7-1-34.3-.3-18.7-.8-39.1-1.1-45.4l-.5-11.3 18.3.3 18.3.4.6-49.5c.3-27.2 1-81.5 1.4-120.7l.7-71.1-18-.4c-9.9-.2-18.3-.6-18.7-1-.4-.3-1.5-19.2-2.5-42-1.1-22.7-2.1-44.9-2.4-49.4l-.5-8.1 9.2-.7c5.1-.4 28.8-2.2 52.7-4.1 23.9-1.9 47.1-3.6 51.5-3.8 12-.6 40.8.1 50.5 1.3z"/><path d="M340.5 206.7c-1.6.2-10.4 1.3-19.5 2.4-9 1.1-16.5 2.1-16.6 2.2-.1.1.8 25.6 1.9 56.7l2.2 56.5 15 .3c13.2.2 15.8 0 21.8-1.9 11.6-3.7 19.5-12.8 23.2-26.5 1.2-4.1 2-14.3 2.7-34.1 1.2-31.7.5-37.8-5-45.8-4.6-6.7-16.1-11.1-25.7-9.8zm13.1 16.4c4.4 4.1 4.7 7.4 4 34.9-.4 14-1.1 28.2-1.7 31.4-1.5 8.4-5.1 15.1-10 18.3-3.7 2.4-5.3 2.8-13.9 3.1l-9.8.4-.6-7.3c-.3-4.1-1-22-1.6-39.9-.6-17.9-1.2-34.4-1.4-36.6l-.3-4.2 10.6-1.5c13.9-2 21.5-1.6 24.7 1.4z"/><path d="M343 231.6c-.8.1-4.1.6-7.2.9l-5.8.6v4.9c0 5.4 1.5 7.6 5.8 8.6 1.5.4 4.4 1.5 6.4 2.5 2.1 1.1 4 1.9 4.3 1.9.7 0 .6-16.5-.1-18.4-.3-.9-.9-1.5-1.3-1.5-.3.1-1.3.3-2.1.5zM331.4 269.7c1 32.3.9 32.2 7.5 28.8 3.3-1.7 4.9-5.2 6.1-13.1.6-4.8.5-6.3-.9-7.9-1.5-1.8-1.5-1.9.2-.6 1.6 1.3 1.7.6 1.7-11.2 0-6.9-.4-12.8-.9-13.2-.6-.3-4-1.7-7.7-3.1l-6.6-2.5.6 22.8zm5.1-7.7c.3.6-.1.7-.9.4-1.8-.7-2.1-1.4-.7-1.4.6 0 1.3.4 1.6 1zm7.7 3.8c1.1 1.3.8 1.2-1.9-.2-1.8-.9-3.3-1.8-3.3-2 0-.9 4.1.8 5.2 2.2zm-6.3 6.8c1.8.9 3 1.8 2.7 2.1-.3.3-2-.4-3.8-1.6-3.9-2.5-3.4-2.7 1.1-.5zM121 89c0 .5.5 1 1.1 1 .5 0 .7-.5.4-1-.3-.6-.8-1-1.1-1-.2 0-.4.4-.4 1zM106.6 95.3c-1.5 1.1-1.6 1.8-.9 3.2 1.4 2.4.5 5.3-1.9 6-2.6.9-4.8-1.1-4.8-4.4-.1-2.5-.2-2.4-2 1.1-2.4 4.4-4.3 5.9-3.8 3 .2-1.2 0-2.1-.4-2.2h-1.7c-.5 0-1.6 1.5-2.5 3.4-1.8 3.7-2.2 14.1-.6 13.1 1.4-.9 1.2 1.2-.4 4.4-1.7 3.1-8.1 9.1-9.8 9.1-.6 0-2.6 1.1-4.4 2.5-1.8 1.4-4 2.5-4.9 2.5-.9 0-3.1 1-4.8 2.3-1.8 1.3-5.1 3.2-7.4 4.2-4.9 2.1-4.7 3.5.5 3.5h3.6l-3.4 2.5c-1.8 1.3-4.8 2.9-6.6 3.5-2.4.8-3.4 1.9-3.9 4-.7 3.3 0 5 2.1 5 1.2 0 1.2.3.2 2-1.9 2.9.2 4.8 3.7 3.2 1.4-.6 2.5-.8 2.5-.3 0 .9-7.1 7.4-11.1 10.2-2.1 1.5-2.2 1.9-1.1 4.3.6 1.5 1.2 3.6 1.2 4.6 0 3.3 4 .6 8.8-6 4.8-6.5 6.9-8.6 7.9-7.6.3.3.1 1.7-.5 3-1.4 3.2-15.3 21.6-16.3 21.7-.5.1-1.3.3-1.9.4-.5.1-1.6.3-2.3.4-1.8.1-5.2 3.2-6 5.4-1 2.6-3.8 3.3-5.3 1.3-1.1-1.6-1.3-1.6-2.2-.1-.8 1.5-1 1.5-2.4.1-2.1-2-3.2-.7-1.2 1.5.9 1 1.1 2 .6 2.3-1.5.9-6.2-3.3-6.2-5.5 0-1.4-.6-1.9-1.8-1.7-1.2.2-1.9 1.6-2.2 4.3-.3 2.5-1 3.9-1.8 3.7-1.4-.2-.8 3 1.4 8.3 1.6 4 6.2 20.4 6.9 24.7.5 3.1 1.2 10 1.5 15.3.1 3.1 1.7-.1 2.3-4.9.3-2.1 1-4.3 1.7-5 .6-.6 1.1-.7 1-.1-.2.5-.2 2.5-.1 4.4.1 2.8.4 3.3 2.1 2.8 1.7-.4 2 0 2 2.9 0 2.5.6 3.8 2.6 5 3 2 3.9 1.2 4.7-4.1l.6-4L36 257c-3.2 4.1-2.4 0 .9-5.1 4.5-6.7 13.3-31.5 12.6-35.3-.5-2.4 0-3.9 1.9-6.5 1.5-1.9 2.6-4.3 2.6-5.3s.7-1.8 1.5-1.8 1.5.4 1.5 1c0 2.9 2 .2 4.5-6.2 3-7.5 3-7.7 1.9-11.9-.5-2.3.3-3.5 5-8.4 3.1-3.2 5.6-6.3 5.6-6.9 0-.6 1.2-3.4 2.5-6.1 2.9-5.8 3.3-8.4 1-6.5-.8.6-1.7 2.1-2.1 3.3-.9 2.9-8.7 14.9-10.7 16.6-1.5 1.2-1.7 1-1.7-2 0-1.9.9-5.3 2-7.6 2.3-5.1 9.3-15.5 12.3-18.3 2-1.9 2.3-1.9 3.4-.5 1 1.4 1.6 1 4.7-3.6 3.9-5.8 4-8.1.1-3.4-1.3 1.7-2.4 2.4-2.5 1.7 0-2.1 7.2-14.2 13.3-22.1 3.9-5.1 5.7-8.4 5.7-10.3 0-1.7.5-2.8 1.3-2.7.6.1 1.8.1 2.5 0 1.8-.2 5.6-4.8 6.4-7.9.3-1.5 1-3.7 1.3-5 .6-1.9.4-2.2-2.2-2.2-1.6 0-3.7.6-4.7 1.3zm-26.3 45.5c-2.2 2.9-2.8 3.3-3.1 1.9-.2-1 .9-3.5 2.5-5.5 2.2-2.9 2.8-3.3 3.1-1.9.2 1-.9 3.5-2.5 5.5zm-9.9 2.4c-6.7 8.2-10.8 11.3-8.3 6.5 1.4-2.7 7.7-8.7 9.2-8.7.5 0 .2 1-.9 2.2zm-.8 9.5c-1.5 3-7.6 9.2-7.6 7.9 0-.9 7.9-10.6 8.6-10.6.3 0-.2 1.2-1 2.7zM61 166.1c-.7 1.1-1.4 1.8-1.7 1.5-.3-.3 0-1.2.7-2.1 1.8-2.1 2.3-1.9 1 .6zm-1.1 28.6c-.7 2.1-1.4 3.2-1.7 2.5-.4-1.4 1.8-7.5 2.5-6.8.3.3-.1 2.2-.8 4.3zm-11.3 10.2c-.3.4-1 2.1-1.6 3.6-.6 1.5-1.3 2.6-1.5 2.3-.8-.8 1.6-6.8 2.7-6.8.5 0 .7.4.4.9zM27.5 209c.3.5.1 1-.4 1-.6 0-1.1-.5-1.1-1 0-.6.2-1 .4-1 .3 0 .8.4 1.1 1zm-11.8 6.2c.6.7 1.3 2.2 1.7 3.2.6 1.6.4 1.7-.9.6-2.1-1.8-3.8-5-2.7-5 .5 0 1.4.6 1.9 1.2zm29.8 7.7c-1.3 3.1-3.1 6.9-4 8.6l-1.7 3 .7-4.5c.8-6.1 5.3-15.9 6.4-14.1.5.8 0 3.5-1.4 7zm-9 2.3c-.4 3.5-.9 8.3-1.2 10.8-.3 2.5-.9 5.2-1.3 6-1.8 3.1-2.3-2.3-1.1-9.9 2-12.6 5-18.2 3.6-6.9zm-15.9 5.6c-.9.8-2.6-1-2.6-2.6.1-1.5.2-1.5 1.5.2.8 1.1 1.3 2.1 1.1 2.4zM37.3 246c-.3 1.1-.9 2.3-1.4 2.6-1 .6-1.2-3.9-.3-4.9 1.2-1.2 2.2.3 1.7 2.3zM534 100c0 2.1 3.8 9 9.5 17 10.7 15 13.8 18.9 14.7 18.4 1-.6-.2-2.6-9.3-15.6-3.6-5.1-8.1-11.9-10-15-3.2-5.4-4.9-7.1-4.9-4.8zM548 110.3c0 1.3 3 6.8 7.7 14 3.9 5.8 4.9 6.8 7.2 6.6 1.4-.2 3.6.3 4.9.9 1.8 1.1 2.2 1 2.2-.1 0-1.7-4.2-4.7-6.7-4.7-1-.1-4-3-6.8-6.6-7.3-9.7-8.4-11-8.5-10.1z"/><path d="M107.1 111.7c0 .6-1.9 3.2-4 5.7-3.1 3.6-3.9 5.2-3.5 7.3.6 3.3 1.2 4 2.3 2.7 1.7-1.8 6.2-13.6 5.8-15.2-.3-1-.5-1.2-.6-.5zM544 126.9c1.1 2.2 3 3.7 3 2.4-.1-1.1-2.6-4.3-3.4-4.3-.4 0-.2.9.4 1.9zM68 133.5c0 1.3.4 1.4 2 .5 1.1-.6 2-1.3 2-1.5 0-.3-.9-.5-2-.5s-2 .7-2 1.5zM563 142.4c0 .2.7.9 1.5 1.6.9.7 1.5.8 1.5.2 0-.5-.7-1.2-1.5-1.6-.8-.3-1.5-.4-1.5-.2zM542.5 144c.3.5.8 1 1.1 1 .2 0 .4-.5.4-1 0-.6-.5-1-1.1-1-.5 0-.7.4-.4 1zM580.9 161.8c.6 1.2 1.6 2.4 2.2 2.8.8.4.8.1 0-1.4-.6-1.2-1.6-2.4-2.2-2.8-.8-.4-.8-.1 0 1.4zM574 164.8c0 .9 5.6 6.2 6.5 6.2.7 0-1.8-5.4-3-6.2-1.4-1-3.5-1-3.5 0zM584.6 175.5c-.4 1 .1 1.5 1.5 1.5 1.3 0 2.5 1.1 3.5 3.5.8 2 1.9 3.3 2.4 3 1.7-1.1-3.6-9.5-6-9.5-.4 0-1 .7-1.4 1.5zM581 183.7c0 2.1 1.9 6.2 3.8 8.1 1.1 1.1 2.5 4.4 3.2 7.3.7 3 2.2 7.8 3.2 10.8 1.8 4.8 2.2 5.2 3.6 3.7 1.4-1.4 1.4-1.7 0-3.3-.9-1-2.5-3.7-3.7-6-1.8-3.6-1.9-4.3-.5-5.3 2.3-2 1.4-3.8-6.8-13.4-1.5-1.7-2.8-2.6-2.8-1.9zM596.8 190.5c2.1 3.8 4.9 6.8 5.5 5.8.4-.5-1-2.5-3-4.4-2-2-3.1-2.6-2.5-1.4zM596 198.8c0 .5.7 1.3 1.6 1.6 1 .4 1.4.1 1.2-.6-.5-1.5-2.8-2.3-2.8-1zM179.1 209c-2.9 3-6.6 7.4-8.2 9.7-4.5 6.5-15.3 28.3-17.1 34.3-4.4 15.4-6.2 24.8-6.2 33.4-.2 16.6 2 30.4 4.4 28 .5-.5 1.1-5 1.4-9.9 1.9-27.1 9.2-50 23.8-74.6 2.1-3.7 4.8-7.5 5.8-8.4 2.4-2.2 2.9-6.5.5-4.5-2 1.6-1.9.1.1-2.1 1-1.2 1.4-3.2 1.2-6.5l-.3-4.9-5.4 5.5zM468 217.8c0 1.7 5 9.5 5.7 8.8.3-.3-.8-2.7-2.6-5.3-1.7-2.6-3.1-4.2-3.1-3.5zM594 219.2c-.1.2-.3 3.1-.7 6.5-.5 5.9-.4 6.2 2.3 7.9 1.6 1 4.6 3.1 6.6 4.6 2.3 1.8 3.9 2.5 4.3 1.8.7-1.1.1-2.1-4.7-8.1-1.4-1.9-2.9-4.9-3.1-6.7-.6-3.4-2.3-6.2-3.8-6.2-.5 0-.9.1-.9.2z"/><path d="M178 233.7c-8.8 16-11.7 22.8-15.7 36.8-4.6 16.3-4.8 18.8-4.8 51.5 0 33.3 0 33 10.2 56.6 4.6 10.5 8.4 17.6 12.1 22.6 6.3 8.3 15 17.4 15.8 16.5.3-.3-1.4-3.2-3.8-6.4-2.5-3.2-5.7-7.8-7.2-10.3l-2.8-4.5 2.9 3.1c13.9 15.2 20.3 22.7 20.3 23.7 0 .3-1 .8-2.2 1-1.3.2 2.1.5 7.5.6l9.7.1v-9.9c0-7.6-.3-10-1.4-10.4-1.4-.6-11.3-13.3-13.5-17.6-.7-1.2-1-2.5-.7-2.9.3-.3.7-.3.9-.1 1.3 1.9 8.7 11.1 11.4 14.2 2.6 2.9 3.3 3.3 3.3 1.8 0-1-1.6-3.6-3.5-5.7-4.6-5.1-11.4-15.4-15.3-23-9.7-19.2-12.7-50.9-6.9-74.4 3.3-13.5 7.6-25.2 12.7-34.7 4-7.4 12.5-19.5 14.2-20.1.4-.2.8-2.1.8-4.3 0-3.6-.2-3.9-2.7-3.9-2.9 0-3.8.9-12.8 12.5-9.2 12-15.1 25.9-19.4 46-2.5 11.6-3.3 18.1-3.2 28.3 0 8.2.2 11.1 2.2 26.7 1.7 13.6 6.6 29.3 11 35.7 1.1 1.4 1.9 3 1.9 3.4 0 1.7-5.3-6.9-8.1-13.2-3.6-7.8-7.5-21.2-8.5-29-1.1-7.7-1.1-31.1-.1-39.4 3.3-27.2 12.1-49.7 25.9-66.3l4-4.7h-3.1c-1.7 0-3.4-.1-3.8-.2-.6-.1-6.5 7.7-14.8 19.5-1.1 1.6-6.5 3.5-6.5 2.2 0-.8 6-10.1 6-9.3 0 .4-.4 1.9-1 3.5l-1 2.8 1.7-2.3c.9-1.3 4-5.6 7-9.5l5.3-7.2-3.2-.3c-3.3-.4-3.3-.4-8.9 6.6-1.6 2.1-1.5 1.6.6-2.1l2.6-4.7h-3.6c-3.3 0-3.5-.2-3.5-3.3v-3.2l-2.1 3.4c-2.8 4.6-3.6 3.1-.9-1.7 1.2-2.2 2.1-4.5 1.9-5.1-.3-.7-3.3 4.1-6.9 10.6zm5 3.9c0 .3-2.4 5.8-5.4 12.2-5.5 11.8-10.8 28.5-12.6 39.6-.6 3.4-1.4 8.3-1.9 11.1l-.9 5-.1-7c-.1-10 2.5-24.7 5.8-32.4 1.6-3.6 3.2-8.2 3.6-10.1.9-4.1 4.9-12.4 7.9-16.2 2-2.5 3.6-3.5 3.6-2.2zm-8.3 36.6c-.3.7-.5.2-.5-1.2s.2-1.9.5-1.3c.2.7.2 1.9 0 2.5zm.3 13.9c-1.2 4.1-2.4 5.3-1.4 1.4.7-3.2 1.3-4.5 1.9-4.5.2 0 0 1.4-.5 3.1zm-9.5 27.1c-.7 14.2-1.5 19.7-1.5 10.2 0-7.5 1.2-24.4 1.8-24.4.2 0 .1 6.4-.3 14.2zm-1 33.8c2.2 11.2 5.8 22.3 10.6 33.3 2.2 4.9 3.8 9.1 3.6 9.4-.6.5-6.6-9-9.5-15.1-3.2-6.7-8.3-25.8-8.4-31.6-.3-8.8 1.5-6.9 3.7 4zm11.4 21.5v2l-.9-2c-.5-1.1-.9-2.7-.9-3.5-.1-1.3 0-1.3.9 0 .5.8.9 2.4.9 3.5zm1.8 5.7c-.3.8-.6.5-.6-.6-.1-1.1.2-1.7.5-1.3.3.3.4 1.2.1 1.9zm22.8-1.2c.3.5.1 1-.4 1-.6 0-1.1-.5-1.1-1 0-.6.2-1 .4-1 .3 0 .8.4 1.1 1zm-5.5 27.5c3.5 4.4 5.6 7.4 4.7 6.6-1.9-1.5-10.8-12.6-12.2-15.1-1.2-2.3.4-.4 7.5 8.5zm11.7 0c.8.9 1.3 1.8 1.1 2.1-.3.2-1.3-.5-2.3-1.6-2.1-2.3-1.1-2.7 1.2-.5zM205 414c.7 1.3.7 2 .1 2s-1.5-.9-2.1-2c-.7-1.3-.7-2-.1-2s1.5.9 2.1 2zM467.7 226.4c-1.9 4.9-.7 12 3.2 19.6 4.3 8.3 6.7 15.7 7.5 24 .4 3 .8 6.8 1.1 8.5.2 1.6.7 6.1 1 10 .3 3.8.9 8.3 1.4 10 .4 1.6.9 6.4 1.1 10.5.9 28.1.7 25.7 2.1 24.3 1.4-1.4 1.8-19.4.6-27.9-.9-6.3-.8-6.9 1.2-8.5 1.4-1.1 2-2.5 1.7-4.1-.3-1.2-.5-2.8-.6-3.3 0-.6-.7-.1-1.5.9-1.9 2.6-2.4 2-3.7-5.1-1.3-7-.7-9.3 2.3-9.3 2.7 0 2-2.4-.9-2.8-1.7-.3-2.2-1-2.2-3.5 0-2.4.3-2.8 1.2-1.9 1.9 1.9 2.8 1.4 2.8-1.6 0-2.9-2.8-7.8-3.1-5.5-.1.7-.2 1.7-.3 2.2-.4 2.8-3.4 1.2-4-2.1-1-5.3-4.3-14.1-8.8-23.8-2.1-4.4-2-4.6.6-1.5 1.4 1.6 2.6 3.4 2.6 3.8 0 .5.4.5 1 .2s0-2.5-1.5-5.3c-1.3-2.6-2.8-5.8-3.3-7.1-.7-2.2-.9-2.2-1.5-.7zM604 229.5c0 .8.4 1.5 1 1.5.5 0 .7-.7.4-1.5-.4-.8-.8-1.5-1-1.5-.2 0-.4.7-.4 1.5zM594.9 241.5c0 .5-.3 2.2-.5 3.6-.3 1.7.3 3.5 1.6 5l2 2.4-.6-4.5c-.6-4.3-2.2-8.6-2.5-6.5z"/><path d="M467 252.3c0 3.2.6 7 1.4 8.5 1.3 2.5 1.8 6.3 3.2 21.7.6 6.9 1.4 10.5 3.1 13.9 2.1 4 3.4 1.6 2.7-4.9-.7-7.1-3.4-21.4-4.6-24.4-.5-1.4-1.2-4.2-1.4-6.1-.7-5.7-1.1-7.3-2.8-11l-1.5-3.5-.1 5.8zM215.4 256.5c-8.7 12.9-11.4 19.4-15.9 38-3.2 13.4-3.6 16.3-3.5 28 0 11.9.1 12.9 3.6 32 1.9 10.7 10.2 27.8 17.8 37 2.5 3 2.5 3 2.6.6 0-1.3-2-5.1-4.3-8.5-5.1-7.1-10.2-17.6-11.1-22.6-.5-2.7.1-1.9 2.7 3.5 1.9 3.8 5.5 10.4 8.1 14.5l4.6 7.5-.1-9c0-7.3-.5-10-2.5-14-2.6-5.5-5.5-15.7-5.3-19 0-1.1 1.8 3.1 3.9 9.3 3.6 10.8 3.8 11.1 4.3 7.5.3-2.1.6-18.5.7-36.5.1-30.2-.1-32.7-1.6-32.1-1.2.4-1.5.2-1.2-.8.3-.8 1-1.3 1.6-1.2.6.2 1.2-2.7 1.4-7.1.2-4.1 0-7.2-.3-7-.4.2-1.7 3.1-2.9 6.4-1.2 3.3-2.4 6-2.7 6-1 0 1.1-6.6 3.5-10.9 2.1-3.9 2.6-6.2 3-15.1.7-16.8.7-16.8-6.4-6.5zm2.5 5.2c-1.2 2.1-2.9 5-3.8 6.5-2.6 4.5-4.4 3.1-2-1.5 2-3.8 6-8.7 7-8.7.6 0 .1 1.7-1.2 3.7zm-3.3 14.5c-1.3 3-4 10.6-6 16.8-3.4 10.6-4.2 15.9-5 31.3-.2 3.1-.6 6-1 6.4-1.4 1.4.1-25.3 1.8-31.2 4.1-14.2 7.9-24.6 9.8-27 3-3.8 3.1-2.5.4 3.7zm2.9 26c-1.2 9.6-2.8 16.2-3.5 14.2-1.4-3.8 1.3-18.4 3.4-18.4.3 0 .4 1.9.1 4.2zm1.6 20.5c-.1 3.8-.5 7.1-.9 7.5-.4.4-.6-1.6-.5-4.5.1-2.9.2-6.5.2-8.1.1-1.6.4-2.6.8-2.3.3.4.5 3.7.4 7.4zm-19.1-.6c0 .5-.4.9-1 .9-.5 0-1-.7-1-1.6 0-.8.5-1.2 1-.9.6.3 1 1 1 1.6zm7.8 33.4c0 1.3-.5.7-1.3-1.5-.7-1.9-1.3-4.6-1.3-6 0-1.9.3-1.6 1.3 1.5.8 2.2 1.3 4.9 1.3 6zM20.4 265.7c-1.2 5-7.1 24.1-9.8 31.8-.7 1.8-.6 1.8.6.3.7-.9 1.8-2.4 2.4-3.4.5-1 1.5-1.4 2.1-1.1.8.5.5 2.9-.8 7.9-1 4-1.9 8.3-1.9 9.6 0 4 2.4 1.9 3.3-2.9.4-2.4 1.7-7.8 2.8-12 1-4.2 1.9-9.1 1.9-10.8 0-1.8 1-5.5 2.2-8.3 1.9-4.5 2-5.2.6-6.2-1-.8-1.4-2.2-1-4.4.5-4-1.5-4.4-2.4-.5zM25.5 266c-.8 1.3.4 3.2 1.6 2.5 1.2-.8 1.2-3.5 0-3.5-.6 0-1.3.4-1.6 1zM603.5 272c.3.5.8 1 1.1 1 .2 0 .4-.5.4-1 0-.6-.5-1-1.1-1-.5 0-.7.4-.4 1zM599 283.2c0 3.8-1.1 6.7-2.7 7-1.8.4 4.4 7.1 8.8 9.3 4.5 2.4 6.4.3 2-2.2-2.3-1.4-3.5-3-4.6-6.7-.8-2.7-1.5-5.8-1.5-6.7 0-1-.4-2.1-1-2.4-.6-.3-1 .4-1 1.7zM466.7 284.4c-.4 1-.7 5-.7 9 0 4.1-.5 9.8-1 12.7-.6 3-1.3 9.7-1.6 14.9-.8 16.6-1.3 21.6-2.5 24.6-1 2.5-1.3 2.6-1.7.9-.2-1-.2-5.8 0-10.5l.5-8.5-1.8 4c-1 2.2-2 6.9-2.4 10.5-.3 3.6-.8 7.2-1 8-.2.8-.7 2.8-.9 4.5-1.3 7.5-9.4 28.8-13.2 34.5-4.1 6.1-4.1 3.9-.1-4.2 3.9-7.9 7.8-20.8 10-33.1.8-4.2 1.3-7.7 1.2-7.7-1.3 0-6 9-6.2 12-.5 6.4-7 24.1-9.3 25.5-1.4.9-1.3.4 2-9.3 1.7-4.8 3.7-10.9 4.5-13.5l1.4-4.9-6.5 6.1c-3.6 3.4-10.1 8.2-14.5 10.8-4.3 2.5-7.9 4.9-7.9 5.2 0 .4-.7 1.6-1.6 2.7-1.5 1.9-1.5 1.9-1.1-.3.4-1.9.2-2-2.3-1.1-1.5.5-3.1 1.7-3.4 2.6-1.3 3.8-9.2 15.7-14.1 21.1-4 4.4-12.8 11.1-18.8 14.1-4.3 2.3-4.5 2.5-2.2 2.8 1.7.2 2.5 1 2.5 2.2 0 1.7.3 1.8 3.1.6 1.6-.7 7.6-5 13.2-9.6 13.8-11.3 13.2-10.9 11.9-8.5-2.6 4.9-23.4 21.5-27 21.5-1 0-2.8 28.7-1.8 29.7.3.3 2-.5 3.8-1.9 5.3-4 14.8-8.5 14.8-7 0 .9-12.4 9.3-16.1 10.9-2.5 1-2.9 1.7-2.9 5.3 0 3.8 1.1 5.2 2.5 3 .3-.5 3.3-2.6 6.7-4.5 4.4-2.6 6.4-3.3 7.2-2.5.7.7 2.4-.4 5.8-4.1 2.6-2.9 5.1-4.9 5.4-4.6.4.4.1 1.3-.6 2.2-1.7 2-.4 1.9 4.7-.6 4.1-2 4.7-2.8 4.4-5.6-.2-1.8 3.7-3.6 6.4-2.9 3.5.9 10.8-5.4 12.1-10.4 1-3.6 3.5-6.4 4.5-4.8.6.9 1.5.6 3.4-1.2 3.6-3.3 5.8-7.7 4.4-8.5-1.4-.9.9-3.5 3.2-3.5 2.2 0 4.5-3.2 10.4-14.4 2.6-5 4.5-10 4.5-11.8 0-2.1.9-4.1 2.6-5.9 1.4-1.4 2.7-4.2 3-6 .8-6.2 1.4-7.9 3.3-9.8 3.3-3.3 5.9-20.4 3.6-22.8-1.6-1.6-.9-10 1.1-13.1 1.1-1.7 1.2-2.7.3-4.4-.7-1.2-1.4-9.1-1.7-18.7-.5-16.1-2-25.6-3.5-21.7zm-7.8 73.3c-2.4 14.1-10.9 32.3-22.7 48.8-11 15.4-14.1 18.3-34.6 33.6-2.5 1.8-7.6 4.1-7.6 3.3 0-.8 5.3-5.2 12.7-10.5 14.1-10.2 33.4-31.9 39.6-44.5 3.6-7.1 9.7-24 11-30.1 1.4-6.6 2.7-7 1.6-.6zM421.3 375c-.3 1-1.1 2.4-1.9 3.1-1.2.9-1.2.6-.3-2 1.2-3.4 3-4.3 2.2-1.1zm-7.4 12.9c-1.8 2.8-3.5 4.8-3.7 4.6-.3-.2 1-2.7 2.8-5.5 1.8-2.8 3.5-4.8 3.8-4.5.3.2-1 2.7-2.9 5.4zm6.7-2.3c-1 1.4-2 2.3-2.3 2-.3-.3.2-1.7 1.1-3.2 1-1.4 2-2.3 2.3-2 .3.3-.2 1.7-1.1 3.2zm12.4.4c0 .5-.5 1-1.1 1-.5 0-.7-.5-.4-1 .3-.6.8-1 1.1-1 .2 0 .4.4.4 1zm-28.5 6c-.3.5-1 1-1.6 1-.5 0-.9-.5-.9-1 0-.6.7-1 1.6-1 .8 0 1.2.4.9 1zm4.7 8.7c-3.4 4.4-7.2 8-7.2 6.9 0-1 9.4-11.6 9.9-11.1.2.2-1 2.1-2.7 4.2zm12.1 2.5c-7.1 9.4-20.2 21.5-16.6 15.5 1.3-2.3 19.8-21.6 20.2-21.1.2.2-1.4 2.7-3.6 5.6zm10.7-2.8c0 3.2-9.8 16.4-15.1 20.2-2.4 1.8-7.1 5.3-10.4 7.8-6.7 5.2-11.5 8.1-11.5 6.8 0-.4 2.4-2.6 5.3-4.7 6.9-5.2 17.9-16.3 25-25.3 3.2-3.9 6-7.2 6.2-7.2.3 0 .5 1.1.5 2.4zM396.5 418c-.3.5-1.1 1-1.6 1-.6 0-.7-.5-.4-1 .3-.6 1.1-1 1.6-1 .6 0 .7.4.4 1zm-9.5 14.4c0 .7-6.4 4.3-9 5.1-3.5 1-1.5-.9 3.5-3.4 4-2 5.5-2.5 5.5-1.7zm.9 8.2c-3.2 3.5-12 9.4-13.1 8.8-2.9-1.8 1.9-6.1 10.7-9.7 5.3-2.1 5.2-2.1 2.4.9zM609 286.7c0 2.1.3 2.4.9 1.4.5-.8.7-2 .4-2.8-.8-2.1-1.3-1.5-1.3 1.4zM492 290.6c0 1.4.4 2.3.9 2 .5-.3.7-1.5.4-2.6-.7-2.8-1.3-2.5-1.3.6zM621 296.8c0 1.8 3.1 6.2 4.4 6.2.3 0-.4-1.8-1.5-4-2.3-4.5-2.9-4.9-2.9-2.2zM139.8 303.5c-.3 1.4-.1 2.5.3 2.5.5 0 .9-1.1.9-2.5s-.2-2.5-.4-2.5-.6 1.1-.8 2.5zM621.7 306.7c-.4.3-.7 1.1-.7 1.7 0 .6.5.5 1.2-.2.6-.6.9-1.4.7-1.7-.3-.3-.9-.2-1.2.2zM477 313.6c0 4.1.4 6.3 1 5.9.6-.3 1-3.3 1-6.6s-.4-5.9-1-5.9-1 2.9-1 6.6zM489 315.1c0 4.4.4 6.8 1 6.4.6-.3 1-3.5 1-7.1 0-3.6-.4-6.4-1-6.4s-1 3-1 7.1zM607 309.4c0 .8.4 1.7.9 2 1 .7 2.3-1.9 1.4-2.8-1.1-1.1-2.3-.6-2.3.8zM139.5 314.1c-.7 2-1.3 7.6-1.5 13.4-.1 3.9-.3 4.5-1 2.8-.5-1.2-1-3.9-1.2-6-.5-5.4-1.6-6.9-3.4-4.6-.9 1.2-1.3 1.3-1.4.5 0-.7-.4-1.1-.9-.8-.4.3-.7 4.9-.6 10.3.3 12.7.3 12.3 1.9 11.7 1-.4 1.8.6 2.5 3.3.6 2.1 1.1 4.4 1.1 5.2 0 .8.3 1.2.6.9.7-.8 1.2-3.6 1.3-7.6.1-5 1.6-3.8 3.6 2.8 2.2 7.2 3.4 6.2 2.9-2.4-1.5-26.2-2.4-33.4-3.9-29.5zm-1.2 21.4c.4.8.2 1.7-.3 2-.6.4-1-.3-1-1.4 0-2.5.6-2.7 1.3-.6zM609 315.4c0 1.5 2.4 2.8 3.4 1.9.7-.7-1.3-3.3-2.5-3.3-.5 0-.9.6-.9 1.4zM629.2 318.1c.2.6.8 1 1.3 1s1.1-.4 1.3-1c.2-.6-.4-1.1-1.3-1.1s-1.5.5-1.3 1.1zM148 321.1c-.7 1.1-1.4 6-1.7 10.7-.4 7.4 0 10.6 2.6 21.4 3.4 14.2 8.8 29.7 13.2 37.5 1.6 2.9 2.9 6.2 2.9 7.2 0 1.1 2.1 4.2 4.8 6.9 2.6 2.7 7.8 8.4 11.6 12.6 6.3 7 7.1 7.6 10.8 7.6h3.9l-1.9-2.8c-1.1-1.5-3.7-4.5-5.7-6.7-6.3-7-16.3-21.9-21.4-32.1-7.3-14.6-13.8-40.1-14.6-56.9-.2-3.3-.4-6.3-.4-6.8-.2-1.5-3.1-.6-4.1 1.4zM600 323.2c0 .7.7 2.1 1.4 3.1 1.8 2.3 3.1.5 1.6-2.3-1.2-2.2-3-2.7-3-.8zM477 327.4c0 1.4.5 2.6 1 2.6.6 0 1-.9 1-1.9 0-1.1-.4-2.3-1-2.6-.6-.4-1 .5-1 1.9zM489 327.5c0 .8.5 1.5 1 1.5.6 0 1-.7 1-1.5s-.4-1.5-1-1.5c-.5 0-1 .7-1 1.5zM595.2 330.6c-2.6 1.8-2.8 4.1-.6 7.2 1.9 2.7 3.4 2.9 2.9.2-.2-1.1 0-3.3.5-5 1-3.6.1-4.4-2.8-2.4zM477 337.6c0 .8.5 1.2 1 .9.6-.4.8-1.1.5-1.6-.9-1.4-1.5-1.1-1.5.7zM476.3 343.6c-3.1 8.5-5.4 25.4-3.6 25.4 3.3 0 7.3-18.6 5.5-25.5l-.8-2.9-1.1 3zM483.9 343.2c0 .7-.2 2.2-.4 3.3-.3 1.1-.6 4.1-.9 6.6-.3 2.5-.8 7.4-1.2 10.9-.9 7.8 1 7.6 2.1-.2.4-2.9.9-6.2 1.1-7.3 1.3-6.6 1.6-13.3.5-13.9-.6-.4-1.1-.1-1.2.6zM604 342.7c-2.1.5-4 3.7-3.1 5.2.5.8 1.4.6 3-.8 1.2-1.1 2.9-1.7 3.7-1.4 2 .8 1.7-1.5-.3-2.5-1-.5-2.5-.7-3.3-.5zM593 349.1c0 .5.5.7 1 .4.6-.3 1-.8 1-1.1 0-.2-.4-.4-1-.4-.5 0-1 .5-1 1.1zM604.5 351.6c-1 .8-2.7 1.4-3.7 1.4s-1.8.7-1.8 1.5.5 1.5 1 1.5c.6 0 1-.5 1-1 0-.6 1.1-1 2.4-1 2.4 0 5.3-2.4 3.9-3.3-.5-.3-1.7.1-2.8.9z"/><path d="M144 359.3c0 1.4.7 4.4 1.5 6.7.8 2.4 1.7 5.3 1.9 6.5 1.2 6.6 13.2 32.6 16.8 36.5 1.3 1.4 5.1 5.9 8.4 10 3.4 4.1 7.1 8.4 8.3 9.4 2.1 1.9 2.1 1.9 2.1-.3 0-1.3-3-5.7-7.5-10.9-5.5-6.4-9.1-11.8-13.5-20.7-6-12.1-13.4-29.3-15.1-35.2-1.2-4.1-2.9-5.2-2.9-2zM592 361.1c-1.4 5.1-.7 5.9 2.5 2.9 3.1-2.9 3.4-7 .5-7-1.4 0-2.2 1.1-3 4.1zM596.7 364.7c-.4.3-.7 1.5-.7 2.5 0 1.8.1 1.8 2.6.2 1.9-1.3 2.2-1.9 1.2-2.5-1.6-1.1-2.3-1.1-3.1-.2zM603.5 367c-.3.5.1 2.2.9 3.7l1.4 2.8.7-2.7c1-3.8-1.3-6.6-3-3.8zM485.5 368c-.8 1.2.6 4.1 1.8 3.7 1.6-.5 1.7-3.5.1-4.1-.7-.3-1.6-.1-1.9.4zM592 377.1c0 .5.5.7 1 .4.6-.3 1-.8 1-1.1 0-.2-.4-.4-1-.4-.5 0-1 .5-1 1.1zM397.3 381.4c-4.4 1.3-8.4 3.3-10.4 5.1l-3.3 3 1.8-2.8c1.7-2.8 1.7-2.9-.1-2.3-1.5.4-7.9 1.3-21.9 3.1-1.8.2-7 2.2-11.8 4.5-8.8 4.2-12.3 4.5-8.9.8 1.8-2.1 1.8-2.1-4.7-1.4-3.6.4-6.7.9-6.9 1.2-.2.2 0 5.2.5 11.1l.9 10.8 16.5 1.4 16.5 1.3 6.2-3.2c10.1-5.2 21.5-16.7 30.6-30.8 1.5-2.3 2.6-4.2 2.5-4.1-.2.1-3.5 1.1-7.5 2.3zM463 390.2c-1.8 3.5-5.9 10.2-9.2 14.9-6.3 9.3-7.9 14.2-3.2 9.8 1.4-1.3 3.9-4.8 5.7-7.9 1.7-3 4.7-7.7 6.5-10.3 3.2-4.5 5.9-12.7 4.2-12.7-.4 0-2.2 2.8-4 6.2zM595.8 386.6c-.5.4-.8 1.9-.8 3.3 0 1.8.3 2.2 1.1 1.4.6-.6.9-2.1.7-3.3-.1-1.2-.6-1.8-1-1.4zM468.7 398.5c-2.5 4.9-5.6 10.5-6.8 12.2-1.1 1.8-1.7 3.3-1.2 3.3 1.2 0 8.9-11.8 11.3-17.4 3.6-8.7 1.5-7.4-3.3 1.9zM584.7 399.7c-.4.3-.7 1.6-.6 2.7 0 1.9.1 1.9 1-.3 1-2.4.8-3.6-.4-2.4zM597.9 405.9c-1.3 1.1-2 2.3-1.6 2.7.4.4 1.7-.2 2.9-1.4 2.8-2.8 1.8-3.8-1.3-1.3zM468.7 408.7c-2.4 2.8-3.3 7.3-1.3 7.3 1.7 0 3.8-3.3 4.2-6.7.3-2.7-.7-2.9-2.9-.6zM582.2 414.1c.2 2 .8 2.3 3.1 2.1 3.1-.4 3.3.3 1.2 4.9-1.8 4.3-4.2 7.2-7.7 9.4-1.6.9-2.8 2.4-2.8 3.1 0 1.6 1.6 1.9 2.5.4.3-.6 1.7-1 3.1-1 1.5 0 3.9-1.4 6.2-3.8 2-2 4.6-4.3 5.7-5 1.9-1.2 1.8-1.2-.7-.9-1.6.2-2.8.1-2.8-.2.1-.3.5-2.5.9-4.9 1-4.8.6-5.3-5.1-6-3.7-.4-3.9-.2-3.6 1.9zM472 416.1c0 .5.5.7 1 .4.6-.3 1-.8 1-1.1 0-.2-.4-.4-1-.4-.5 0-1 .5-1 1.1zM437.9 427.9c-2.4 2.6-7.1 7-10.4 9.6-6.3 5.1-11.5 10.2-11.5 11.4 0 .3 1.7.7 3.7.9 2 .1 3.9.5 4.2.8.3.3-1.9 2.8-4.9 5.5l-5.5 4.9 4.3-1.5c4.2-1.4 4.3-1.4 3.7.5-.7 2.3-.1 2.2 8.1-1.6 4.1-1.9 5.2-2.9 6.1-5.9 1-3.1.9-3.6-.3-3.1-2.1.8-1.7-.3 1.7-4.1 1.6-1.9 2.8-3.7 2.5-4-.2-.3-2.8 1.1-5.8 3.1-2.9 2-5.4 3.2-5.6 2.6-.2-.5 1-2.8 2.7-4.9 1.7-2.1 3.1-4.2 3.1-4.7 0-.4 1.9-3.3 4.3-6.3 5.3-6.9 6.1-8.1 4.9-8.1-.5 0-2.9 2.2-5.3 4.9zM489 425c-.6 1.2-.9 2.4-.7 2.7.3.2 1.1-.5 1.7-1.7.6-1.2.9-2.4.7-2.7-.3-.2-1.1.5-1.7 1.7zM576.6 447.2c-.9 1.2-1.6 3.2-1.6 4.4 0 1.2-.8 3.2-1.9 4.5-1.7 2.3-5.1 8.3-5.1 9.2 0 1.3 8.1-3.9 9.6-6.1 1-1.5 2.5-3.2 3.4-3.9 1-.7 2-2.2 2.3-3.3.4-1.6 0-2-1.9-2-2.6 0-3.2-1.8-1.2-3.8.9-.9.8-1.2-.4-1.2-.9 0-2.4 1-3.2 2.2zM401.5 456.4c-14 8.7-17.1 10.8-19.9 13.1l-2.9 2.3 4.4-.8c2.8-.5 4.9-1.6 6.1-3.3 2.8-3.8 10.1-7.7 13.7-7.3 3.3.4 6.3-2.1 7.6-6.2 1-3.3-1.1-2.8-9 2.2zM434.5 459.1c-1 1.5.3 2.5 1.6 1.2.7-.7.7-1.3.1-1.7-.6-.3-1.4-.1-1.7.5zM399.4 467.1c-4.4 2.8-10.1 6.8-12.9 8.8l-4.9 3.6 2.9.6c2.7.5 2.8.7 1 1.4-1.1.5-2.6 1.5-3.3 2.2-.7.7-2.3 1.3-3.5 1.3-4.6 0-6.7 1.2-6.7 3.6 0 1.3.2 2.4.4 2.4 1.9 0 14.3-6.9 24.7-13.7 1.9-1.3 4.1-2.3 5-2.3 2.3 0 6.1-4.5 6.5-7.7.1-1.5.8-2.9 1.3-3.1 1.4-.5.4-2.2-1.3-2.2-.8 0-4.9 2.3-9.2 5.1zm1.7 4.3c-.6.8-2.1 1.6-3.2 1.9-2 .5-2 .5-.3-1.4 2-2.3 5.4-2.8 3.5-.5zM437.5 463c-.3.5-.2 1 .4 1 .5 0 1.3-.5 1.6-1 .3-.6.2-1-.4-1-.5 0-1.3.4-1.6 1zM456 466c-1.8 1.7-3 3.4-2.6 3.7.4.4 2.1-.7 3.8-2.5 4.2-4.1 3.1-5.2-1.2-1.2zM559.2 472c-1.5 2.5-1.5 3 .1 3 1.4 0 3.9-3.5 3-4.4-1-1-1.8-.7-3.1 1.4zM372 474c0 1.1.4 2 .8 2 .5 0 1.7-.9 2.7-2 1.8-2 1.7-2-.8-2-2 0-2.7.5-2.7 2zM418.8 475.9c-6 3.8-6.9 5.2-2.6 4.5 3.2-.6 4.9-2 6.9-5.7 1.3-2.3 1.1-2.2-4.3 1.2zM565.1 477.6c-4.5 4-5.9 8-1.8 5 1.2-.9 3.9-2.5 6-3.7 2.1-1.1 3.7-2.5 3.4-3.2-.8-2.4-3.7-1.7-7.6 1.9zM573 480.5c-.7.9-.8 1.5-.2 1.5.5 0 1.2-.7 1.6-1.5.3-.8.4-1.5.2-1.5s-.9.7-1.6 1.5zM418.1 484c-4 2.2-7 5-5.5 5 1.2 0 10.4-5.7 10.4-6.5 0-.9-1.4-.5-4.9 1.5zM561.5 489.1c-1.6.5-3.9 2.1-5 3.6l-1.9 2.7 3.7-2.3c4.3-2.6 6.7-2.2 6.7 1.1 0 2 .2 2.1 1.5.8.8-.8 1.6-2.6 1.7-4 .3-2.9-1.8-3.5-6.7-1.9zM545.2 490.2c-1.9 1.9-1.4 2.9.8 1.6 2-1.3 2.7-2.8 1.2-2.8-.4 0-1.3.5-2 1.2zM414.9 491.7c-1.3 1.5-1.2 1.5.9.4 2.3-1.2 2.8-2.1 1.3-2.1-.5 0-1.5.7-2.2 1.7zM536 498.1c0 .5.5.7 1 .4.6-.3 1-.8 1-1.1 0-.2-.4-.4-1-.4-.5 0-1 .5-1 1.1zM124.4 499.9c1.1 1.1 2.3 2.1 2.8 2.1 1.4 0-.1-1.9-2.5-3.1-2.2-1.2-2.2-1.2-.3 1zM557.7 498.7c-1.2 1.1-.8 2.3.7 2.3.8 0 1.6-.7 2-1.5.5-1.5-1.4-2.1-2.7-.8zM371 506.2c.1 5.1.1 5.2 1.5 2.8 1.9-3.4 1.9-8 0-8-1.1 0-1.5 1.2-1.5 5.2zM536 513.5c-1.4 1.6-.3 2 1.9.6.8-.5.9-1.1.3-1.5-.5-.3-1.5.1-2.2.9zM544.4 512.8c-.6.4-1.3 1.5-1.7 2.4-.8 2.3 1.5 2.4 3.3.3 1.5-1.8.2-3.9-1.6-2.7zM133 514.5c2.6 3.2 17.6 15.9 21.1 17.9l3.4 1.9-2-2.3c-2-2.3-19.5-16.7-22.5-18.4-1.3-.9-1.3-.8 0 .9zM372.8 516.7c-1 .2-1.8.8-1.8 1.3 0 .4.9.6 2 .3s2-.9 2-1.4c0-.5-.1-.8-.2-.8-.2.1-1.1.3-2 .6zM382.5 519c-.3.5-.1 1 .4 1 .6 0 1.1-.5 1.1-1 0-.6-.2-1-.4-1-.3 0-.8.4-1.1 1zM442 519.5c-1.4 1.6-1 1.8 1.4.9.9-.3 1.6-1 1.6-1.5 0-1.4-1.6-1.1-3 .6zM374.8 521.6c-2.7.8-4.8 1.9-4.8 2.4 0 1.3.7 1.3 5.7-.6 2.4-.9 4.3-2.1 4.3-2.5 0-.5-.1-.9-.2-.8-.2 0-2.4.7-5 1.5zM89.9 526c4 3.7 7.1 5.1 7.1 3.2 0-.8-9.5-7.2-10.7-7.2-.4.1 1.2 1.9 3.6 4zM152.4 524.9c2.1 2.3 2.6 2.6 2.6 1.1 0-.5-1-1.5-2.2-2.1-2.3-1.2-2.3-1.2-.4 1zM375.3 527.9c-3.7 1.1-5.3 2.1-5.3 3.3 0 1.6.4 1.6 4.8-.3 4.4-1.9 8.8-5 6.7-4.8-.6.1-3.4.9-6.2 1.8zM375.8 533.3c-4 1.5-5.8 2.7-5.8 3.9 0 1.3.5 1.5 1.8 1 7.8-3.3 12.2-5.6 12.2-6.3 0-1.3-1.8-1-8.2 1.4zM166 534c0 .5.5 1 1.1 1 .5 0 .7-.5.4-1-.3-.6-.8-1-1.1-1-.2 0-.4.4-.4 1zM389.5 534.2c-1.1.7-5.8 2.6-10.5 4.3l-8.5 3.2-.3 4.1c-.2 2.3.1 4.2.5 4.2 3.3 0 13.8-4.7 17-7.6 3.4-3 3.5-3.3 1-2.2-1.5.6-3 .8-3.5.4-.7-.8 1-2.4 5.9-5.8 2.7-1.9 1.5-2.4-1.6-.6zM170 537c0 1.4 3.8 3.2 4.5 2.1.3-.6-.3-1.5-1.4-2-2.4-1.4-3.1-1.4-3.1-.1zM169 541.5c0 .2 2.7 2 6.1 4 3.3 1.9 6.8 4.2 7.6 5.1.9.8 1.8 1.3 2 1 1.3-1.3-.9-3.4-6-5.9-3.1-1.5-5.9-3.2-6.2-3.7-.6-1-3.5-1.4-3.5-.5zM509 544c-2.4 2.1-2.3 3.4.1 2.5 1.7-.6 4.3-4.5 3.1-4.5-.5 0-1.9.9-3.2 2zM487.6 544.5c-.8 2.3-.8 3.5.3 3.5 1.3 0 2-2.5 1.1-3.9-.5-1-.9-.8-1.4.4zM135.9 545.8c.6 1.1 3.4 4.1 6.3 6.7 2.9 2.6 4.6 4.5 3.8 4.2-.8-.3-3.8-1.4-6.7-2.6-2.9-1.1-5.5-1.7-5.7-1.2-.3.5.3 1.1 1.4 1.4 1.1.3 2 1.2 2 2.1 0 1.4-.4 1.5-2 .6-2.3-1.2-2.6-.5-.6 1.5.7.7 3.3 1.7 5.6 2 5.5.8 12.2 3.9 18.3 8.6 2.7 2 6.7 4.2 9 4.9 2.3.6 6.6 2.9 9.7 4.9 3 2 7.4 4.5 9.8 5.5 2.3 1.1 4.7 2.5 5.3 3.3 2 2.3-1.8 1.6-8.5-1.7-3.3-1.6-9.2-4.2-13.1-5.7-3.8-1.6-9.1-4.1-11.7-5.6-5.5-3.3-15.8-7.1-16.7-6.2-1 1.1 2.7 3.2 9 5.1 3.2 1 7.5 3.1 9.5 4.8l3.6 2.9-3.3 2.8c-1.9 1.5-3.1 3-2.8 3.4.4.3 2.7.1 5.1-.4 3.7-.9 5.9-.7 11.8 1 7.9 2.2 11.5 3.7 10.6 4.6-.3.3-2.7.8-5.3 1.1-5.5.5-6.3.9-4.3 2.3.9.5 4.8.7 9.2.3 8.9-.7 12.8.8 12.8 5 0 3 3.6 4.1 6.7 2 2.8-1.7 2.9-2.9.6-4.3-1.5-.9-1.6-1.2-.4-2 1.3-.8 18.1 3.1 25.7 5.9 4.6 1.8 3.8.3-2-3.6-3.1-2-5.4-4-5.1-4.4.7-1.1 8.7.6 15.1 3.3 5.4 2.3 9.4 2.5 9.4.6 0-.9-4.4-3-11.4-5.3-2.3-.7-8.4-1.6-13.6-2-21.3-1.3-33.2-5.8-26-9.6 2.5-1.4 1.9-2.7-1.2-2.5-1.3.1-3.5-.6-5-1.6-3.2-2.3-4.2-2.4-3.5-.4 1.3 3.2-1.9 2.3-15.3-4.7-12.8-6.6-21-12.2-21-14.2 0-1.1 4.2 0 10.5 2.9 6.7 3.1 7.4 3.1 3.8.2-4.5-3.7-9.9-6.7-12-6.7-1 0-4.8-2.1-8.4-4.6-3.5-2.5-7.2-5-8.2-5.5-1.6-.9-1.7-.8-.8.9zm63.1 47.7c0 .8-.4 1.5-.9 1.5-1.3 0-2.2-1.6-1.4-2.4 1.1-1.1 2.3-.6 2.3.9zM165 544.6c0 .8 2.7 3.4 3.6 3.4.4 0 2.5 1.4 4.8 3 2.3 1.7 5.8 4.2 7.9 5.5l3.8 2.5-.3-2.6c-.2-2.2-1.9-3.5-9.3-7.5-8.9-4.8-10.5-5.5-10.5-4.3zM468.9 546.7c-1.3 1.7-1.3 1.7.6.3 1.1-.8 2.2-1.6 2.4-1.7.2-.2 0-.3-.6-.3s-1.7.8-2.4 1.7zM453 561.7c.1 2.3 2.6 5.1 3.9 4.4 1-.7 1.1-1.3.2-3-1.1-2-4.1-3-4.1-1.4zM281.2 563.5c1 1.1 11.7 1.4 12.3.4.4-.5-2.1-.9-6.1-.9-3.7 0-6.5.2-6.2.5zM466 564.1c0 .5.5.7 1 .4.6-.3 1-.8 1-1.1 0-.2-.4-.4-1-.4-.5 0-1 .5-1 1.1zM439.5 568.1c-6.5 2.7-8.8 4.7-8.2 7.7.3 1.5-.2 2.7-1.7 3.7-2.8 2-3.9 1.9-3.3-.5.6-2.4-.2-2.5-2.9-.5-2.5 1.9-7.3 1.9-9.5-.1-2.3-2.1-6.3-1.2-9.2 2-4.4 4.7-7.7 9.1-7.7 10.2 0 1.6-6.3 7-9.2 7.9-1.3.4-3.4 1.6-4.7 2.6-2.4 1.9-6.1 2.6-6.1 1.1.1-.8 4.8-4.2 10.5-7.3 3.9-2.2 3.9-2.3 1.5-2.9-4.8-1.2-21.5 3.8-23.5 7.1-1.2 1.8-.1 1.8 4.1 0 2.3-1.1 5.2-2.2 6.5-2.6 2.2-.7 2.3-.7.9 1-2.4 3-7.9 4.7-16.2 5.1-5.3.3-9.2 1.1-12 2.5-3.8 1.9-3.9 2.1-2.1 3.5 1 .9-.1.5-2.5-.7-4-2.2-4.4-2.2-7-.7-1.9 1.1-3.4 1.3-5.1.7-1.3-.5-4.7-.9-7.5-.8-2.8.1-6.8-.6-9-1.6-2.1-.9-4-1.4-4.3-1.1-.8.8.7 2.6 2.2 2.6.7 0 1.5.7 1.9 1.5.4 1-.3 1.7-2.2 2.1-4.8 1-5.2 1.3-5.2 3.4 0 2.2-1.9 2.7-3.7.9-.6-.6-1.7-.9-2.4-.7-1.4.5 4.3 4.1 7.8 5 2 .5 2.2.3 1.7-1.8-1-4 3.5-3.1 8 1.5 3.5 3.6 7.8 5.6 9.1 4.3.3-.3-.2-1.4-1.2-2.4-2.8-3.1-.7-3.1 6.9 0 4.8 2 7.6 2.7 8.3 2.1 1.3-1.3-.8-2.6-6.3-4-4.6-1.2-11.6-6.9-9.4-7.6.7-.3 5.6 1.7 11 4.4 10.6 5.2 14.8 5.8 15.4 2 .2-1.6 1-2.2 3-2.2 3.1 0 5.7-2.9 5.8-6.3 0-1.9.4-2.2 2-1.7 1.1.3 2.9 0 4-.8 1.6-1.1 3.1-1.2 5.8-.6 9.7 2.3 12.3 2.2 15-.3 7.4-6.6 11.4-9.1 12.3-7.7.5.8.9 2.2.9 3.1 0 .9.4 1.9.9 2.3.6.3.4 1.7-.5 3.3-1.8 3.4-1.8 6.3 0 8.8 1.3 1.7 1.5 1.7 2.1.3.3-.9.5-2.2.3-3-.2-1 .7-1.4 2.7-1.4 2.1 0 4.1-1.1 6.9-3.8 2.7-2.7 4.2-3.5 4.9-2.8.8.8.3 1.9-1.6 3.9-3.1 3.2-3.4 4.1-1.2 3.8 1.5-.2 8.1-6.8 10-10 .6-1 2.1-1.8 3.4-1.9 1.5-.1 3.3-1.6 5.2-4.4 3.3-4.7 3.5-5.8 1.4-6.7-2.2-.8-1.8-2.6.5-2.6 1.1 0 2 .4 2 .9s.9 1.1 1.9 1.4c1.1.2 2.1 1.5 2.3 2.8.1 1.2.8 2.4 1.3 2.5.9.3 6.5-7.8 6.5-9.5 0-.4-2.1-.4-4.7 0-2.7.4-5.2.3-5.7-.2-.6-.5-1.8-.9-2.8-.9-2.9 0-2.1-1.7 2-4 2-1.1 4.7-3.6 6-5.5 2.4-3.8 2.8-5 1.1-3.9-.8.5-.8.1 0-1.3 2-3.8-.1-4.1-7.4-1.2zm-1.2 5.9c-.3 1.1-.9 2-1.4 2-1 0-1.2-2.4-.2-3.3 1.3-1.3 2.1-.7 1.6 1.3zm-26.3 6.5c0 .7-4.3 4.5-5.2 4.5-1.5 0-.8-2.9 1-3.9 1.8-1.1 4.2-1.4 4.2-.6zm17.2 9.7c-.7.7-1.2.8-1.2.2 0-1.4 1.2-2.6 1.9-1.9.2.3-.1 1.1-.7 1.7zm-23.7.8c-.3.5-1.1 1-1.6 1-.6 0-.7-.5-.4-1 .3-.6 1.1-1 1.6-1 .6 0 .7.4.4 1zm9.5 11c0 .5-.4 1-1 1-.5 0-1-.5-1-1 0-.6.5-1 1-1 .6 0 1 .4 1 1zm-61.7 7.7c-.7.2-1.9.2-2.5 0-.7-.3-.2-.5 1.2-.5s1.9.2 1.3.5zM480.5 573.5c-2.2 1.9-5.8 5.3-8 7.5-4.5 4.4-6.5 5-6.5 2.1 0-3.2-1.9-3.4-2.6-.4-.3 1.5-1.3 4.2-2.1 5.9-2.8 5.4-1.1 5.5 6.2.5 10-7 21.3-19.1 17.8-19.1-.5 0-2.6 1.6-4.8 3.5zM221 572c2 1.3 5.3 1.3 4.5 0-.3-.6-1.8-1-3.3-1-2.1 0-2.4.2-1.2 1zM495 572c0 .5.4 1 .9 1 .6 0 1.3-.5 1.6-1 .3-.6-.1-1-.9-1-.9 0-1.6.4-1.6 1zM483 581.2c-2.3 2.6-2.7 4.6-.4 2.8 1.6-1.4 3.8-5 3-5-.3 0-1.4 1-2.6 2.2z"/><path d="M437.9 597c-1.7 1.3-1.9 1.9-.9 1.9 2.1 0 5.3-2.6 4.2-3.3-.6-.3-2.1.3-3.3 1.4zM272.8 602.7c2.4 1.7 3 4.3.9 4.3-.8 0-2.1.8-3 1.8-1.5 1.6-1.3 1.7 4.3 1.9 4.9.1 6.7.7 11.2 3.7 4.9 3.4 5.3 3.5 5.6 1.6.3-1.5 1-1.9 3-1.7 2.9.2 3.2-.1 3.2-3.4 0-2.9-6.1-5.2-12.3-4.6-4.4.4-5.3.1-8.2-2.4-1.8-1.6-4.1-2.9-5.1-2.8-1.7 0-1.7.2.4 1.6zM209 603.9c0 2.6 6.7 4.8 8.7 2.8 1.9-1.8.3-3.4-4.4-4.2-3.9-.6-4.3-.5-4.3 1.4zM247.6 604.5c-4.5 1.3-4 1.9 2.4 3 9.7 1.7 10.2 1.6 7.7-1.9-1.7-2.3-5-2.6-10.1-1.1zM393.6 607.1c-2.8 3.3-2.6 5.9.2 3.7 2.2-1.6 5.1-5.1 5.2-6.1 0-1.8-3-.4-5.4 2.4zM228.9 607.7c2.3 4.1 3.1 4.5 7.7 5 2.7.2 5.3.8 5.9 1.4.5.5 2.4.9 4.3.9 5.1 0 3.4-2.4-2.3-3.2-2.6-.4-5.3-1.2-5.8-1.7-.6-.6-2-1.1-3.2-1.1-1.2 0-3-.7-4.1-1.5-2.6-2-3.7-1.9-2.5.2zM301.1 609.9c-1 .7-1 1-.1 1.6.6.4 1.6.3 2.2-.3 1.3-1.3-.4-2.3-2.1-1.3zM211.6 613.9c.9.9 4.6 1.5 7.4 1.1 2.4-.2-2-1.8-5.4-1.9-1.9-.1-2.6.3-2 .8zM225.4 615.5c-1.9 1.4-1.9 1.4.2 1.5 1.1 0 2.9-.7 4-1.5 1.9-1.4 1.9-1.4-.2-1.5-1.1 0-2.9.7-4 1.5zM263.4 615.3c2.5 1.8.4 3.3-5.2 4-6.5.7-6.3 1.7.4 1.7 3.7 0 6.8-.6 8-1.5 1-.8 3.5-1.4 5.4-1.4 4.3 0 16.3 4 16.1 5.4 0 .5-1.9 1.3-4.1 1.6-2.2.3-4.6 1.1-5.2 1.7-1.8 1.8 5.4 1.6 9.8-.3 2-.8 4.6-1.3 5.8-1 12.3 2.5 14.7 2.8 15.8 1.7.9-.9.7-1.2-1-1.2-4.5 0-19.4-4.3-23.4-6.8-3.3-2-16.4-5.2-21.4-5.2-2.5 0-2.6.1-1 1.3zM320.8 627.3c1.2 1.4 8.3 5.1 12.1 6.2 3.8 1.1 1.6-1.2-4.2-4.5-5.5-3.1-9.8-4.1-7.9-1.7zM303.5 633c1.1.5 2.7.9 3.5.9 1.3.1 1.3 0 0-.9-.8-.5-2.4-.9-3.5-.9h-2l2 .9zM309 633c0 .5.5 1 1.1 1 .5 0 .7-.5.4-1-.3-.6-.8-1-1.1-1-.2 0-.4.4-.4 1zM317 635c0 .5 1.4 1.6 3 2.5 2.8 1.5 3 1.4 3-.4 0-1.9-1.8-3.1-4.6-3.1-.8 0-1.4.4-1.4 1zM327.1 637.4c1.2 1 6 1.6 5.4.6-.3-.5-1.8-1-3.2-1-1.5 0-2.4.2-2.2.4z"/></svg>